<svg id="_90_code_development_outline" xmlns="http://www.w3.org/2000/svg" xmlns:xlink="http://www.w3.org/1999/xlink" viewBox="0 0 500 500" data-imageid="coding-46" imageName="Coding" class="illustrations_image" style="width: 144px;"><defs><style>.cls-1_coding-46{fill:url(#linear-gradient);}.cls-1_coding-46,.cls-2_coding-46,.cls-3_coding-46,.cls-4_coding-46,.cls-5_coding-46,.cls-6_coding-46,.cls-7_coding-46,.cls-8_coding-46,.cls-9_coding-46,.cls-10_coding-46,.cls-11_coding-46,.cls-12_coding-46,.cls-13_coding-46,.cls-14_coding-46,.cls-15_coding-46,.cls-16_coding-46,.cls-17_coding-46,.cls-18_coding-46,.cls-19_coding-46,.cls-20_coding-46{stroke-width:0px;}.cls-2_coding-46{opacity:.18;}.cls-2_coding-46,.cls-3_coding-46,.cls-8_coding-46,.cls-9_coding-46,.cls-10_coding-46,.cls-11_coding-46,.cls-17_coding-46{isolation:isolate;}.cls-2_coding-46,.cls-3_coding-46,.cls-8_coding-46,.cls-17_coding-46,.cls-20_coding-46{fill:#68e1fd;}.cls-3_coding-46{opacity:.52;}.cls-4_coding-46{fill:url(#linear-gradient-11-coding-46);}.cls-5_coding-46{fill:url(#linear-gradient-12-coding-46);}.cls-6_coding-46{fill:url(#linear-gradient-13-coding-46);}.cls-7_coding-46{fill:url(#linear-gradient-10-coding-46);}.cls-8_coding-46{opacity:.54;}.cls-9_coding-46{fill:url(#linear-gradient-9-coding-46);}.cls-9_coding-46,.cls-10_coding-46,.cls-11_coding-46{opacity:.1;}.cls-10_coding-46{fill:url(#linear-gradient-3-coding-46);}.cls-11_coding-46{fill:url(#linear-gradient-4-coding-46);}.cls-21_coding-46{opacity:.74;}.cls-12_coding-46{fill:url(#linear-gradient-2-coding-46);}.cls-13_coding-46{fill:url(#linear-gradient-8-coding-46);}.cls-14_coding-46{fill:url(#linear-gradient-7-coding-46);}.cls-15_coding-46{fill:url(#linear-gradient-5-coding-46);}.cls-16_coding-46{fill:url(#linear-gradient-6-coding-46);}.cls-17_coding-46{opacity:.48;}.cls-18_coding-46{fill:#231f20;}.cls-19_coding-46{fill:#ffb4a3;}</style><linearGradient id="linear-gradient-coding-46" x1="610.58" y1="2054.35" x2="83.88" y2="1476.05" gradientTransform="translate(-31 1892.57) scale(1 -1)" gradientUnits="userSpaceOnUse"><stop offset="0" stop-color="#fff" stop-opacity="0"/><stop offset=".99" stop-color="#fff"/></linearGradient><linearGradient id="linear-gradient-2-coding-46" x1="285.4" y1="1505.49" x2="285.4" y2="1550.03" xlink:href="#linear-gradient-coding-46"/><linearGradient id="linear-gradient-3-coding-46" x1="454.65" y1="1498.51" x2="495.32" y2="1498.51" gradientTransform="translate(-34.02 1871.78) scale(1 -1)" gradientUnits="userSpaceOnUse"><stop offset="0" stop-color="#000" stop-opacity="0"/><stop offset=".99" stop-color="#000"/></linearGradient><linearGradient id="linear-gradient-4-coding-46" x1="134.47" y1="1496.15" x2="481.19" y2="1496.15" xlink:href="#linear-gradient-3-coding-46"/><linearGradient id="linear-gradient-5-coding-46" x1="491.58" y1="1555.27" x2="93.33" y2="1176.37" xlink:href="#linear-gradient-3-coding-46"/><linearGradient id="linear-gradient-6-coding-46" x1="339.14" y1="1500.33" x2="420.82" y2="1438.26" gradientTransform="translate(-31 1892.57) scale(1 -1)" xlink:href="#linear-gradient-3-coding-46"/><linearGradient id="linear-gradient-7-coding-46" x1="354.19" y1="1559.35" x2="333.78" y2="1465.3" xlink:href="#linear-gradient-coding-46"/><linearGradient id="linear-gradient-8-coding-46" x1="475.98" y1="1538.51" x2="408.96" y2="1474.76" xlink:href="#linear-gradient-3-coding-46"/><linearGradient id="linear-gradient-9-coding-46" x1="41.43" y1="31045.61" x2="212.35" y2="-13990.76" xlink:href="#linear-gradient-3-coding-46"/><linearGradient id="linear-gradient-10-coding-46" x1="105.95" y1="1709.94" x2="186.02" y2="1733.94" xlink:href="#linear-gradient-3-coding-46"/><linearGradient id="linear-gradient-11-coding-46" x1="126.65" y1="1699.95" x2="266.92" y2="1879.19" xlink:href="#linear-gradient-3-coding-46"/><linearGradient id="linear-gradient-12-coding-46" x1="121.77" y1="1653.17" x2="131.81" y2="1655.68" xlink:href="#linear-gradient-3-coding-46"/><linearGradient id="linear-gradient-13-coding-46" x1="154.61" y1="1726.23" x2="64.04" y2="1831.03" xlink:href="#linear-gradient-3-coding-46"/></defs><path id="background_coding-46" class="cls-2_coding-46 targetColor" d="M37.02,230.56c-15.58,18.6-32.07,39.84-30.47,64.06,1.27,19.2,13.95,36.48,13.76,55.69-.19,19.21-13.36,37.22-10.5,56.31,3.19,21.67,25.66,35.07,46.96,40.21,44.95,10.86,91.8-.95,137.9-4.58,35.39-2.78,70.96-.66,106.39,1.46l99.54,5.92c13.36.8,27.2,1.54,39.69-3.25,11.45-4.38,20.7-13.02,28.63-22.29,17.38-20.2,30.43-46.49,26.35-72.81-6.58-42.43-54.34-70.76-57.08-113.57-.9-14.01,3.01-29.45-4.64-41.22-3.01-4.63-7.5-8.07-12.17-11-29.09-18.23-65.51-18.67-99.84-18.53l-168.05.63c-18.54.07-49.76-6.05-66.05,3.38-8.25,4.76-50.41,50.57-50.41,59.61Z" style="fill: rgb(104, 225, 253);"/><g id="coding_screen_coding-46"><rect class="cls-20_coding-46 targetColor" x="96.39" y="36.85" width="316.01" height="316.83" style="fill: rgb(104, 225, 253);"/><rect class="cls-1_coding-46" x="96.39" y="36.85" width="316.01" height="316.83"/><g class="cls-21_coding-46"><rect class="cls-20_coding-46 targetColor" x="131.32" y="50.02" width="61.81" height="6.45" style="fill: rgb(104, 225, 253);"/><rect class="cls-20_coding-46 targetColor" x="131.32" y="62.51" width="37.73" height="6.07" style="fill: rgb(104, 225, 253);"/><rect class="cls-8_coding-46 targetColor" x="184.27" y="62.51" width="118.72" height="6.11" style="fill: rgb(104, 225, 253);"/><rect class="cls-20_coding-46 targetColor" x="314.09" y="62.51" width="66.83" height="6.11" style="fill: rgb(104, 225, 253);"/><rect class="cls-20_coding-46 targetColor" x="150.95" y="75" width="51.87" height="6.4" style="fill: rgb(104, 225, 253);"/><rect class="cls-17_coding-46 targetColor" x="150.95" y="123.02" width="33.67" height="7.21" style="fill: rgb(104, 225, 253);"/><rect class="cls-20_coding-46 targetColor" x="243.93" y="145.05" width="14.22" height="7.18" style="fill: rgb(104, 225, 253);"/><rect class="cls-20_coding-46 targetColor" x="150.95" y="133.77" width="33.67" height="7.21" style="fill: rgb(104, 225, 253);"/><rect class="cls-20_coding-46 targetColor" x="150.95" y="263.82" width="33.67" height="7.21" style="fill: rgb(104, 225, 253);"/><rect class="cls-20_coding-46 targetColor" x="170.11" y="204.31" width="33.67" height="7.21" style="fill: rgb(104, 225, 253);"/><rect class="cls-17_coding-46 targetColor" x="170.11" y="216.13" width="33.67" height="7.21" style="fill: rgb(104, 225, 253);"/><rect class="cls-20_coding-46 targetColor" x="170.11" y="238.7" width="33.67" height="7.21" style="fill: rgb(104, 225, 253);"/><rect class="cls-20_coding-46 targetColor" x="170.11" y="250.53" width="33.67" height="7.21" style="fill: rgb(104, 225, 253);"/><rect class="cls-20_coding-46 targetColor" x="212.04" y="216.13" width="33.67" height="7.21" style="fill: rgb(104, 225, 253);"/><rect class="cls-17_coding-46 targetColor" x="212.04" y="250.17" width="33.67" height="7.21" style="fill: rgb(104, 225, 253);"/><rect class="cls-20_coding-46 targetColor" x="195.56" y="263.82" width="109.31" height="7.21" style="fill: rgb(104, 225, 253);"/><rect class="cls-20_coding-46 targetColor" x="167.6" y="87.5" width="61.81" height="6.45" style="fill: rgb(104, 225, 253);"/><rect class="cls-3_coding-46 targetColor" x="233.45" y="87.5" width="51.81" height="7.17" style="fill: rgb(104, 225, 253);"/><rect class="cls-20_coding-46 targetColor" x="167.52" y="100" width="47.73" height="6.07" style="fill: rgb(104, 225, 253);"/><rect class="cls-17_coding-46 targetColor" x="167.52" y="145.86" width="69.79" height="5.66" style="fill: rgb(104, 225, 253);"/><rect class="cls-20_coding-46 targetColor" x="353.11" y="100" width="47.73" height="6.07" style="fill: rgb(104, 225, 253);"/><rect class="cls-20_coding-46 targetColor" x="219.83" y="100" width="98.5" height="6.73" style="fill: rgb(104, 225, 253);"/><rect class="cls-20_coding-46 targetColor" x="327.67" y="100" width="21.71" height="6.84" style="fill: rgb(104, 225, 253);"/><rect class="cls-17_coding-46 targetColor" x="167.33" y="112.49" width="107.62" height="6.02" style="fill: rgb(104, 225, 253);"/><rect class="cls-20_coding-46 targetColor" x="167.33" y="276.41" width="70.98" height="6.29" style="fill: rgb(104, 225, 253);"/><rect class="cls-20_coding-46 targetColor" x="186.41" y="159.52" width="61.81" height="6.45" style="fill: rgb(104, 225, 253);"/><rect class="cls-17_coding-46 targetColor" x="186.41" y="192.12" width="61.81" height="6.45" style="fill: rgb(104, 225, 253);"/><rect class="cls-20_coding-46 targetColor" x="186.41" y="322.19" width="37.54" height="6.24" style="fill: rgb(104, 225, 253);"/><rect class="cls-20_coding-46 targetColor" x="169.49" y="334.28" width="25.43" height="5.76" style="fill: rgb(104, 225, 253);"/><rect class="cls-20_coding-46 targetColor" x="186.41" y="286.71" width="38.11" height="6.45" style="fill: rgb(104, 225, 253);"/><rect class="cls-20_coding-46 targetColor" x="232.37" y="286.71" width="38.11" height="6.45" style="fill: rgb(104, 225, 253);"/><rect class="cls-20_coding-46 targetColor" x="203.89" y="298.54" width="38.11" height="6.45" style="fill: rgb(104, 225, 253);"/><rect class="cls-20_coding-46 targetColor" x="249.83" y="298.54" width="38.11" height="6.45" style="fill: rgb(104, 225, 253);"/><rect class="cls-20_coding-46 targetColor" x="203.89" y="310.63" width="52.28" height="6.45" style="fill: rgb(104, 225, 253);"/><rect class="cls-20_coding-46 targetColor" x="264.35" y="310.63" width="13.96" height="6.45" style="fill: rgb(104, 225, 253);"/><rect class="cls-20_coding-46 targetColor" x="186.41" y="227.59" width="30.91" height="6.17" style="fill: rgb(104, 225, 253);"/><rect class="cls-20_coding-46 targetColor" x="205.2" y="180.66" width="43.02" height="5.75" style="fill: rgb(104, 225, 253);"/><rect class="cls-20_coding-46 targetColor" x="259.66" y="180.66" width="43.02" height="5.75" style="fill: rgb(104, 225, 253);"/><rect class="cls-20_coding-46 targetColor" x="259.66" y="215.42" width="43.02" height="5.75" style="fill: rgb(104, 225, 253);"/><rect class="cls-20_coding-46 targetColor" x="311.26" y="180.66" width="43.02" height="5.75" style="fill: rgb(104, 225, 253);"/><rect class="cls-20_coding-46 targetColor" x="283.39" y="310.89" width="70.89" height="5.75" style="fill: rgb(104, 225, 253);"/><rect class="cls-17_coding-46 targetColor" x="259.51" y="159.52" width="61.81" height="6.45" style="fill: rgb(104, 225, 253);"/><rect class="cls-20_coding-46 targetColor" x="206.48" y="169.19" width="61.81" height="6.45" style="fill: rgb(104, 225, 253);"/><rect class="cls-17_coding-46 targetColor" x="279.57" y="169.19" width="61.81" height="6.45" style="fill: rgb(104, 225, 253);"/><rect class="cls-20_coding-46 targetColor" x="329.11" y="159.52" width="61.81" height="6.45" style="fill: rgb(104, 225, 253);"/></g><rect class="cls-20_coding-46 targetColor" x="96.39" y="353.67" width="316.01" height="17.73" style="fill: rgb(104, 225, 253);"/><rect class="cls-12_coding-46" x="96.39" y="356.9" width="316.01" height="14.51"/></g><g id="laptop_coding-46"><path class="cls-10_coding-46" d="M461.14,363.7c.72,8.06-1.06,14.95-4.05,18.68-2.99,3.73-7.45,6.06-12.07,7.3-4.62,1.24-19.61,5-24.39,5.27,4.64-1.44,22.49-6.83,24.81-11.1.97-1.96,1.83-3.98,2.56-6.04,1.57-3.96,3.64-22.5,6.68-25.54,3.54-3.51,6.11,7.52,6.45,11.43Z"/><path class="cls-11_coding-46" d="M261.94,386.07c-42.6-3.86-85.38-5.33-128.14-4.43-12.14.27-26.38-.28-33.35-10.22,7.78-6.06,18.35-6.68,28.2-7.01,96.81-3.45,186.6-6.39,283.4-9.84-4.44-3.22,0-11.07-.9-16.48,9.54-2.92,29.74,1.61,36.01,8.25-5.87-4.21-18.39-5.73-23.74-3.54-5.34,2.19-9.68,7-6.77,11.97.86,1.47,2.24,2.72,2.47,4.41.38,2.82-2.57,4.86-5.19,5.95-23.13,9.54-51.24.41-73.59,11.7-1.34.57-2.51,1.47-3.4,2.62-3.32,5.05,4.47,10,10.42,11,21.31,3.61,42.85,5.59,64.46,5.94l-73.19,3.4c2.09,2.5,1.03,6.55-1.4,8.71-2.43,2.17-5.78,2.86-8.99,3.44-27.09,4.63-65.45,2.79-88.15-15.27,6.9-4.05,14.55-7.17,21.83-10.58Z"/><path class="cls-20_coding-46 targetColor" d="M458.22,364.82c-1.39,6.49-5.2,13.46-12.25,19.37-12.92,10.86-29.63,13.68-41.38,14.13-1.45.06-2.86.09-4.33.09-10.5,0-21-1.38-31.15-2.73l-7.2-.95c-12.17-1.52-26.19-2.77-38.56,1.59l-1.09-3.09-1.14-3.21c13.73-4.85,28.68-3.53,41.6-1.91,2.41.3,4.83.62,7.25.95,11.28,1.49,22.95,3.04,34.36,2.6,10.7-.42,25.87-2.94,37.35-12.58,4.57-3.82,8.59-9.43,10.01-15.37.8-3.12.72-6.4-.24-9.47-.42-1.28-.99-2.49-1.71-3.63-3.24-5.13-9.08-8.42-14.07-9.89-7.42-2.19-15.51-1.91-23.35-1.63h-.29l-.1-2.94-.13-3.73c8.06-.3,17.18-.63,25.77,1.91,9.99,2.94,17.56,9.62,20.23,17.86,1.23,4.1,1.38,8.45.41,12.62Z" style="fill: rgb(104, 225, 253);"/><path class="cls-15_coding-46" d="M458.35,361.19c-.57,7.47-4.36,16.06-12.78,23.14-12.92,10.85-29.64,13.68-41.39,14.13-1.44.06-2.86.09-4.33.09-10.5,0-21-1.38-31.14-2.73l-7.21-.95c-12.17-1.52-26.19-2.77-38.55,1.59l-2.22-6.3c.55-.19,1.11-.38,1.67-.55l1.09,3.09c12.41-4.36,26.39-3.11,38.56-1.59l7.2.95c10.16,1.35,20.63,2.73,31.15,2.73,1.44,0,2.86,0,4.33-.09,11.75-.46,28.46-3.27,41.38-14.13,7.04-5.92,10.85-12.88,12.25-19.37Z"/><polygon class="cls-20_coding-46 targetColor" points="295.79 358.68 340.93 368.99 332.33 408.49 302.46 422.82 261.52 405 288.98 392.73 295.79 358.68" style="fill: rgb(104, 225, 253);"/><polygon class="cls-16_coding-46" points="295.79 358.68 340.93 368.99 332.33 408.49 302.46 422.82 261.52 405 288.98 392.73 295.79 358.68"/><polygon class="cls-20_coding-46 targetColor" points="292.83 357.88 337.97 368.18 329.37 407.68 300.08 421.93 259.15 404.1 286.02 391.91 292.83 357.88" style="fill: rgb(104, 225, 253);"/><polygon class="cls-20_coding-46 targetColor" points="291.75 392.1 326.69 403.12 333.95 371.14 297.67 363.35 291.75 392.1" style="fill: rgb(104, 225, 253);"/><polygon class="cls-14_coding-46" points="291.75 392.1 326.69 403.12 333.95 371.14 297.67 363.35 291.75 392.1"/><path class="cls-13_coding-46" d="M450.76,350.81l-1.01-.19c-3.24-5.13-9.08-8.42-14.07-9.89-7.42-2.19-15.77-1.91-23.61-1.62l-.09-3.21s17.18-.95,27.35,3.93c6.45,3.11,11.42,10.98,11.42,10.98Z"/></g><g id="stair_coding-46"><rect class="cls-20_coding-46 targetColor" x="-68.34" y="262.67" width="288.28" height="2" transform="translate(-197.68 285.52) rotate(-78.53)" style="fill: rgb(104, 225, 253);"/><rect class="cls-20_coding-46 targetColor" x="-38.39" y="263.7" width="289.08" height="2" transform="translate(-174.44 315.76) rotate(-78.46)" style="fill: rgb(104, 225, 253);"/><rect class="cls-20_coding-46 targetColor" x="100.42" y="140.65" width="30.64" height="2" style="fill: rgb(104, 225, 253);"/><rect class="cls-20_coding-46 targetColor" x="95.59" y="164.56" width="30.64" height="2" style="fill: rgb(104, 225, 253);"/><rect class="cls-20_coding-46 targetColor" x="90.75" y="188.47" width="30.64" height="2" style="fill: rgb(104, 225, 253);"/><rect class="cls-20_coding-46 targetColor" x="85.91" y="212.39" width="30.64" height="2" style="fill: rgb(104, 225, 253);"/><rect class="cls-20_coding-46 targetColor" x="81.07" y="236.31" width="30.64" height="2" style="fill: rgb(104, 225, 253);"/><rect class="cls-20_coding-46 targetColor" x="76.24" y="260.23" width="30.64" height="2" style="fill: rgb(104, 225, 253);"/><rect class="cls-20_coding-46 targetColor" x="71.41" y="284.14" width="30.64" height="2" style="fill: rgb(104, 225, 253);"/><rect class="cls-20_coding-46 targetColor" x="66.57" y="308.06" width="30.64" height="2" style="fill: rgb(104, 225, 253);"/><rect class="cls-20_coding-46 targetColor" x="61.73" y="331.98" width="30.64" height="2" style="fill: rgb(104, 225, 253);"/><rect class="cls-20_coding-46 targetColor" x="56.89" y="355.9" width="30.64" height="2" style="fill: rgb(104, 225, 253);"/><rect class="cls-20_coding-46 targetColor" x="52.05" y="379.8" width="30.64" height="2" style="fill: rgb(104, 225, 253);"/><path class="cls-9_coding-46" d="M138.93,353.4l-2.5-227.28-2.09-.4.19,17.3h-5.58c-.09-2.98-.5-5.86-1.55-7.81-2.95-5.49-6.68,0-7.75,3.67-.48,1.6-1.22,3.29-2.66,4.1h-5.63c-.66-.13-1.33-.2-2-.19-.42.02-.83.08-1.23.18h-2.86l-.22-17.61-2.09-.39.27,21.82c-.14.23-.29.47-.41.72-1.28,2.51-1.6,5.37-1.91,8.18-2.67,28.09-1.26,56.38.16,84.55.25,4.88.51,9.84,2.18,14.43.36.99.8,1.95,1.33,2.86l1.2,95.94,33.17-.08ZM136.84,352.94l-28.95-.07-.26-21.37,28.97.07.24,21.37ZM136.58,329.61l-28.99-.07-.27-21.37,29,.08.26,21.36ZM136.33,306.29l-29-.11-.27-21.37,29.03.08.24,21.4ZM136.07,282.97l-29.04-.08-.27-21.37h1.91c.27.14.54.27.82.38,1.67.57,3.49.44,5.06-.36h21.3l.22,21.43ZM135.81,259.64h-19.16c.27-.46.45-.96.52-1.49.27-1.99-.84-3.87-1.59-5.73-1.8-4.47-1.62-9.39-.55-14.15l20.57.05.23,21.32ZM135.55,236.32h-20.04c.34-1.25.74-2.48,1.17-3.68,2.14-5.9,5.04-11.57,6.45-17.66h12.19l.23,21.34ZM135.27,212.99h-11.75c1.2-7.01.26-14.32.71-21.37h10.81l.23,21.37ZM135.01,189.67h-10.61c.17-1.71.47-3.4.89-5.06.63-2.41,1.57-4.77,1.96-7.21.31-3.03.26-6.08-.17-9.1h7.71l.23,21.36ZM134.52,144.98l.24,21.37h-7.85c-.08-1.03-.1-2.06-.08-3.09.13-3.68,1.15-7.28,1.58-10.95.3-2.43.47-4.87.52-7.32h5.58Z"/></g><g id="character_coding-46"><path class="cls-20_coding-46 targetColor" d="M86.08,143.52l-10.5,11.97c-1.83,2.08-3.82,4.54-3.4,7.29.34,1.55,1.11,2.97,2.21,4.11,1.98,2.37,4.25,4.49,6.75,6.31,3.53-9.62,6.26-19.5,4.93-29.68Z" style="fill: rgb(104, 225, 253);"/><path class="cls-7_coding-46" d="M86.22,143.47l-10.5,11.97c-1.83,2.08-3.82,4.55-3.4,7.29.33,1.54,1.08,2.97,2.17,4.11,1.99,2.37,4.26,4.48,6.76,6.3,3.61-9.61,6.3-19.48,4.97-29.67Z"/><path class="cls-19_coding-46" d="M121.97,120.08c-.18-.56-.26-1.15-.24-1.74.04-.25.04-.51,0-.76-.14-.36-.35-.68-.62-.95-.61-.82-.78-1.9-.44-2.86.66-.13.89-.65,1.12-1.27.16-.64.43-1.26.79-1.81.08-.12.21-.2.35-.22.16.02.3.11.36.26.28.55-.09,1.31.29,1.79.22.27.6.35.87.56.57.43.6,1.31,1.11,1.79.12.09.23.2.32.31.11.19.15.41.11.63-.06.85-.35,1.67-.85,2.36-.48.48-.83,1.09-1.01,1.75,0,.21-.02.41-.08.61-.18.35-.58.52-.95.41-.35-.09-.84-.68-1.14-.86Z"/><path class="cls-20_coding-46 targetColor" d="M103.35,143.14c-.27-.37-.59-.69-.95-.95-.6-.38-1.31-.56-2.01-.5-.7.07-1.4.18-2.08.34-3,.55-6.07-.14-9.11,0-3.42.2-4.7,3.82-5.3,5.27-1.18,2.8-1.93,5.75-2.23,8.77-.14,1.43-.18,2.86-.22,4.31-.17,5.85-.56,11.64-.33,17.49l.38,9.6c-.04.58.11,1.15.43,1.63.35.35.8.59,1.29.68,5.39,1.56,11.08,1.59,16.69,1.59,2.86,0,6.13-.17,8.02-2.33,2.08-2.39,1.54-5.98,1.1-9.11-1.61-12.01,1.65-27.14-5.66-36.8Z" style="fill: rgb(104, 225, 253);"/><path class="cls-4_coding-46" d="M103.35,143.14c-.27-.37-.59-.69-.95-.95-.6-.38-1.31-.56-2.01-.5-.7.07-1.4.18-2.08.34-3,.55-6.07-.14-9.11,0-3.42.2-4.7,3.82-5.3,5.27-1.18,2.8-1.93,5.75-2.23,8.77-.14,1.43-.18,2.86-.22,4.31-.17,5.85-.56,11.64-.33,17.49l.38,9.6c-.04.58.11,1.15.43,1.63.35.35.8.59,1.29.68,5.39,1.56,11.08,1.59,16.69,1.59,2.86,0,6.13-.17,8.02-2.33,2.08-2.39,1.54-5.98,1.1-9.11-1.61-12.01,1.65-27.14-5.66-36.8Z"/><path class="cls-19_coding-46" d="M99.59,138.75c.7-.5,1.28-1.15,1.7-1.91.27-.73.37-1.51.28-2.28-.05-1.22-.38-2.42-.95-3.5-.59-1.09-1.61-1.88-2.81-2.19-1.91-.39-3.87.95-4.77,2.65-.82,1.79-1.21,3.76-1.14,5.73-.07,2.47-1.97,6.25.35,7.12,2.68,1,4.77-1.91,5.22-3.19.45-1,1.19-1.85,2.12-2.43Z"/><path class="cls-18_coding-46" d="M100.45,126.09c-.01.85-.26,1.67-.72,2.39-.4.78-.88,1.52-1.43,2.2-.38.38-.71.82-.95,1.3-.21.83-.13,1.71.21,2.49-.41.21-.8-.73-1.18-.47-.07.06-.12.15-.14.24-.19.6-.03,1.26.41,1.71.13.1.23.23.31.37.11.3-.13.6-.25.9-.29.73.22,1.61-.16,2.29-.4.51-1.02.78-1.66.73-1.12.08-2.23.1-3.35.08-.23.01-.45-.03-.66-.13-.29-.24-.47-.58-.51-.95-.65-2.75-.97-5.56-.95-8.39-.07-.83.12-1.67.55-2.39.33-.45.82-.74,1.17-1.15s.7-1.19,1.16-1.71c.7-.64,1.56-1.07,2.49-1.26,1.84-.49,5.45-1.18,5.66,1.78Z"/><path class="cls-18_coding-46" d="M81.31,213.07c.17,1.44.21,2.9.1,4.35-.17,1.16-.43,2.31-.78,3.43-1.2,4.53-2.71,8.98-4.54,13.29-1.32,2.86-2.93,5.73-3.98,8.7-1.09,3.53-1.79,7.17-2.09,10.85.92-.24,1.75-.77,2.35-1.52,8.47-8.55,15.59-18.34,21.12-29.02,1.26-2.26,2.22-4.67,2.86-7.17.4-2.12.6-4.28.6-6.44.25-4.66.18-9.33-.21-13.98-.17-1.62-.55-3.45-1.91-4.3-.69-.37-1.45-.57-2.23-.6-2.61-.24-5.27,0-7.84-.57-.95-.19-2.43-1.11-3.14-.5s-.31,3.61-.35,4.43c-.38,6.34-.37,12.71.04,19.05Z"/><path class="cls-5_coding-46" d="M81.31,213.07c.17,1.44.21,2.9.1,4.35-.17,1.16-.43,2.31-.78,3.43-1.2,4.53-2.71,8.98-4.54,13.29-1.32,2.86-2.93,5.73-3.98,8.7-1.09,3.53-1.79,7.17-2.09,10.85.92-.24,1.75-.77,2.35-1.52,8.47-8.55,15.59-18.34,21.12-29.02,1.26-2.26,2.22-4.67,2.86-7.17.4-2.12.6-4.28.6-6.44.25-4.66.18-9.33-.21-13.98-.17-1.62-.55-3.45-1.91-4.3-.69-.37-1.45-.57-2.23-.6-2.61-.24-5.27,0-7.84-.57-.95-.19-2.43-1.11-3.14-.5s-.31,3.61-.35,4.43c-.38,6.34-.37,12.71.04,19.05Z"/><path class="cls-18_coding-46" d="M101.13,226.54c.23,3.66.02,7.33-.61,10.94l-2.47,18.53c.52.92,1.69,1.23,2.6.71.04-.02.08-.05.12-.07.86-.62,1.52-1.48,1.91-2.46,3.75-7.37,7.55-14.88,8.94-23.02.59-3.83.83-7.7.72-11.57-.12-9.72-1.23-19.4-3.32-28.9-.05-.45-.25-.88-.58-1.19-.43-.23-.92-.29-1.39-.17l-8.5,1.07c-2.03.26-11.95-.05-11.95-.05,0,0,3.45,8.48,4.43,11.1,2.99,7.98,10.12,16.26,10.12,25.08Z"/><path class="cls-19_coding-46" d="M68.09,255.14c.16.37.39.69.7.95,1.9,1.86,4.34,3.08,6.97,3.47.7.2,1.46.02,1.99-.48.38-.61.28-1.41-.24-1.91-.49-.47-1.07-.85-1.71-1.1-1.26-.49-2.27-1.48-2.79-2.73-1.36-4.54-6.1-1.95-4.92,1.78Z"/><path class="cls-19_coding-46" d="M97.14,260.08c.48.77,1.2,1.36,2.05,1.67,2.06.95,4.38,1.78,6.61,1.26.65-.11,1.24-.45,1.67-.95.42-.53.4-1.28-.06-1.78-.52-.47-1.33-.32-2.02-.4-.82-.1-1.55-.54-2.01-1.22-.26-.38-.42-.82-.66-1.21-2.05-3.45-7.35-.99-5.58,2.64Z"/><path class="cls-18_coding-46" d="M67.93,252.06c.38-.43.95-.63,1.52-.53.8.19,1.22,1.14,1.99,1.46.34.14.73.15,1.08.28.66.32,1.24.77,1.72,1.33,1.36,1.24,3.31,1.91,4.21,3.48.23.32.27.73.12,1.09-.18.24-.45.4-.74.43-1.02.2-2.37.56-3.33.16-1.67-.65-3.28-1.43-4.83-2.33-.85-.52-1.46-1.91-2.07-2.74-.74-.99-.51-1.75.34-2.62Z"/><path class="cls-18_coding-46" d="M97.27,257.15c-.26-.1-.57-.24-.77-.05-.05.04-.08.09-.1.15-.48,1.22-.13,2.61.87,3.46.99.82,2.11,1.47,3.31,1.91,1.2.63,2.49,1.08,3.82,1.34,1.35.25,2.73-.26,3.58-1.34.28-.4.4-.88.33-1.36-.2-1.05-1.39-1.51-2.39-1.91-1.26-.5-2.36-1.4-3.66-1.8-1.66-.54-3.44.24-4.99-.4Z"/><path class="cls-20_coding-46 targetColor" d="M103.27,142.53l7.5-3.73c.94-.43,1.84-.96,2.66-1.58,4.46-3.63,4.21-10.33,6.52-15.59.11-.35.35-.66.66-.86.27-.09.57-.11.85-.06l3.03.36-2.41,17.76c-.13,1.3-.41,2.58-.84,3.82-.37.87-.83,1.7-1.37,2.48-2.9,4.35-6.59,8.12-10.87,11.12-.45.36-.97.62-1.53.76-.66.1-1.33-.02-1.91-.35-2.07-1.08-2.93-3.58-3.33-5.88-.62-2.79-.25-5.71,1.05-8.26Z" style="fill: rgb(104, 225, 253);"/><path class="cls-6_coding-46" d="M103.27,142.53l7.5-3.73c.94-.43,1.84-.96,2.66-1.58,4.46-3.63,4.21-10.33,6.52-15.59.11-.35.35-.66.66-.86.27-.09.57-.11.85-.06l3.03.36-2.41,17.76c-.13,1.3-.41,2.58-.84,3.82-.37.87-.83,1.7-1.37,2.48-2.9,4.35-6.59,8.12-10.87,11.12-.45.36-.97.62-1.53.76-.66.1-1.33-.02-1.91-.35-2.07-1.08-2.93-3.58-3.33-5.88-.62-2.79-.25-5.71,1.05-8.26Z"/></g></svg>