<svg version="1.1" id="Layer_1" xmlns="http://www.w3.org/2000/svg" xmlns:xlink="http://www.w3.org/1999/xlink" x="0px" y="0px" viewBox="0 0 500 500" style="width: 144px;" xml:space="preserve" data-imageid="search-engine-78" imageName="Search Engine" class="illustrations_image">
<style type="text/css">
	.st0_search-engine-78{fill:#FDF2D6;}
	.st1_search-engine-78{fill:url(#SVGID_1_);}
	.st2_search-engine-78{fill:url(#SVGID_00000006702959908235327100000002164646633780548243_);}
	.st3_search-engine-78{fill:url(#SVGID_00000167390595829255690830000002221076262812085934_);}
	.st4_search-engine-78{fill:url(#SVGID_00000070102835450918231680000001327182876568277423_);}
	.st5_search-engine-78{fill:#68E1FD;}
	.st6_search-engine-78{opacity:0.1;enable-background:new    ;}
	.st7_search-engine-78{opacity:0.3;enable-background:new    ;}
	.st8_search-engine-78{fill:#FFFFFF;}
	.st9_search-engine-78{fill:#A1C3FC;}
	.st10_search-engine-78{opacity:0.25;}
	.st11_search-engine-78{fill:#EEAF7D;}
	.st12_search-engine-78{fill:#F8997C;}
	.st13_search-engine-78{fill:#DD654A;}
	.st14_search-engine-78{fill:#5FAD00;}
	.st15_search-engine-78{fill:#297600;}
</style>
<g id="Base_search-engine-78">
	<path class="st0_search-engine-78" d="M461.6,314.4L219.8,454.4c-11.7,6.7-26.1,6.7-37.8,0L47.6,377.2c-7.2-4.2-9.7-13.4-5.6-20.6&#10;&#9;&#9;c1.3-2.3,3.2-4.2,5.5-5.5l252-147.7c4.7-2.7,10.5-2.7,15.2,0l146.9,84.9c7.2,4.2,9.7,13.4,5.5,20.6&#10;&#9;&#9;C465.8,311.2,463.9,313.1,461.6,314.4L461.6,314.4z"/>
</g>
<g id="Shadow_search-engine-78">
	
		<linearGradient id="SVGID_1_-search-engine-78" gradientUnits="userSpaceOnUse" x1="347.8791" y1="1715.9811" x2="257.469" y2="1789.5612" gradientTransform="matrix(1 0 0 1 0 -1443.47)">
		<stop offset="0" style="stop-color:#EEAF7D"/>
		<stop offset="1" style="stop-color:#FDF2D6"/>
	</linearGradient>
	<path class="st1_search-engine-78" d="M334.6,307.7l-75.8,50.4c-30.3-17.9-27.2-15.1-27.2-15.1l56-31.7c0,0,15.6,3.2,16.1,0.6s7.8-11.2,7.8-11.2&#10;&#9;&#9;l18.7-1.6L334.6,307.7z"/>
	
		<linearGradient id="SVGID_00000183967186950940865500000005592163208742815402_-search-engine-78" gradientUnits="userSpaceOnUse" x1="266.2447" y1="1813.7681" x2="177.3947" y2="1886.088" gradientTransform="matrix(1 0 0 1 0 -1443.47)">
		<stop offset="0" style="stop-color:#EEAF7D"/>
		<stop offset="1" style="stop-color:#FDF2D6"/>
	</linearGradient>
	<path style="fill:url(#SVGID_00000183967186950940865500000005592163208742815402_);" d="M261.2,411.6l-69.3,47.9&#10;&#9;&#9;c-30.2-18-46.5-28-46.5-28l52.1-13.6L261.2,411.6z"/>
	
		<linearGradient id="SVGID_00000119809390049419001520000014519892358227355308_-search-engine-78" gradientUnits="userSpaceOnUse" x1="222.123" y1="1703.0891" x2="129.543" y2="1778.4491" gradientTransform="matrix(1 0 0 1 0 -1443.47)">
		<stop offset="0" style="stop-color:#EEAF7D"/>
		<stop offset="1" style="stop-color:#FDF2D6"/>
	</linearGradient>
	<path style="fill:url(#SVGID_00000119809390049419001520000014519892358227355308_);" d="M184,271.5l-88,51.1&#10;&#9;&#9;c0,0,8.3,14.7,38.5,32.6l82.8-52.1"/>
	
		<linearGradient id="SVGID_00000001644391288977257770000003289382616855936941_-search-engine-78" gradientUnits="userSpaceOnUse" x1="176.5192" y1="1799.7213" x2="113.2092" y2="1851.2614" gradientTransform="matrix(1 0 0 1 0 -1443.47)">
		<stop offset="0" style="stop-color:#EEAF7D"/>
		<stop offset="1" style="stop-color:#FDF2D6"/>
	</linearGradient>
	<path style="fill:url(#SVGID_00000001644391288977257770000003289382616855936941_);" d="M141.3,372.1L91,400.5&#10;&#9;&#9;c0,0,3,3.8,33.3,21.8l48.2-37.2"/>
</g>
<g id="Monitor_search-engine-78">
	<polygon class="st5_search-engine-78 targetColor" points="306.9,42.7 299.5,39.7 300.7,43.7 305.4,43.9 &#9;" style="fill: rgb(104, 225, 253);"/>
	<path class="st5_search-engine-78 targetColor" d="M96.2,167L96,296.5c0,3.2,2.6,5.9,5.8,5.9c1,0,2-0.3,2.9-0.7l190.7-106.7c3.9-2.2,6.4-6.3,6.5-10.8l3.5-136.7&#10;&#9;&#9;c0.1-4.3-3.3-7.8-7.5-7.9c-1.5,0-2.9,0.3-4.2,1.1l-190,113.2C99,156.6,96.2,161.6,96.2,167z" style="fill: rgb(104, 225, 253);"/>
	<path class="st6_search-engine-78" d="M96.2,167L96,296.5c0,3.2,2.6,5.9,5.8,5.9c1,0,2-0.3,2.9-0.7l190.7-106.7c3.9-2.2,6.4-6.3,6.5-10.8l3.5-136.7&#10;&#9;&#9;c0.1-4.3-3.3-7.8-7.5-7.9c-1.5,0-2.9,0.3-4.2,1.1l-190,113.2C99,156.6,96.2,161.6,96.2,167z"/>
	<path class="st5_search-engine-78 targetColor" d="M106.3,304.7l-7.1-2.9l2.9-2.7L106.3,304.7z" style="fill: rgb(104, 225, 253);"/>
	<path class="st5_search-engine-78 targetColor" d="M242.5,210.5L221.7,241c0,0-2.9,8.4,6.8,14.7c9.7,6.3,34,19.2,34,19.2l-48.8,30.5l-37.3-21.2&#10;&#9;&#9;c0,0-16.6-6.2,2.2-40.5" style="fill: rgb(104, 225, 253);"/>
	<path class="st5_search-engine-78 targetColor" d="M242.5,210.5L221.7,241c0,0-2.9,8.4,6.8,14.7c9.7,6.3,34,19.2,34,19.2l-48.8,30.5l-37.3-21.2&#10;&#9;&#9;c0,0-16.6-6.2,2.2-40.5" style="fill: rgb(104, 225, 253);"/>
	<path class="st7_search-engine-78" d="M242.5,210.5L221.7,241c0,0-2.9,8.4,6.8,14.7c9.7,6.3,34,19.2,34,19.2l-48.8,30.5l-37.3-21.2&#10;&#9;&#9;c0,0-16.6-6.2,2.2-40.5"/>
	<path class="st5_search-engine-78 targetColor" d="M102.3,169.5L102.1,299c0,3.2,2.6,5.9,5.8,5.9c1,0,2-0.3,2.9-0.8l190.7-106.7c3.9-2.2,6.3-6.3,6.5-10.7&#10;&#9;&#9;L311.5,50c0.1-4.3-3.2-7.8-7.5-7.9c-1.5,0-2.9,0.3-4.2,1.1L109.8,156.4C105.1,159.1,102.3,164.1,102.3,169.5z" style="fill: rgb(104, 225, 253);"/>
	<polygon class="st8_search-engine-78" points="112,166.5 112,275.3 303.4,162.8 303.4,53.6 &#9;"/>
	<polygon class="st9_search-engine-78" points="140.1,225.6 155.8,221.1 156.6,237 150.2,231.1 144.9,244.7 135.9,240.1 146.6,229.3 &#9;"/>
	<path class="st0_search-engine-78" d="M153.4,208.8v0.5c0,3.4,2.7,6.1,6.1,6.1c1.1,0,2.2-0.3,3.2-0.9l93.1-55.6c1.9-1.1,3-3.1,3-5.3l0,0&#10;&#9;&#9;c0-3.4-2.7-6.1-6.1-6.2c-1.1,0-2.2,0.3-3.2,0.9l-93.1,55.1C154.5,204.5,153.3,206.6,153.4,208.8z"/>
	<path class="st5_search-engine-78 targetColor" d="M241.8,140.1c-0.3,0.8-0.8,1.6-1.3,2.4c-0.3,0.4-0.7,0.8-1,1.2l-0.4,0.4c0,0.6-0.1,0.7-0.1,0.2&#10;&#9;&#9;c-0.4-0.9-0.6-1.9-0.8-2.9l-0.8-3.2c-0.2-0.7-0.9-1.1-1.6-0.9c-0.1,0-0.2,0.1-0.3,0.1c-1.6,1.2-2.8,2.9-3.5,4.8l0,0&#10;&#9;&#9;c0.5-2,0.9-4,1.2-6.1c0.3-2.6,0.6-5.2,0.7-7.8c0.1-2,0.8-5-1.5-6.2s-3.7,0.9-4.3,2.6c-0.7,2.5-1,5.1-0.8,7.7c0.1,2.7,0.4,5.5,1,8.2&#10;&#9;&#9;c0.2,0.8,0.4,1.5,0.6,2.3l0,0c-0.1,0.4-0.1,0.8-0.2,1.2c-0.6,1.9-1.4,3.7-2.4,5.4c-0.2,0.4-0.2,0.8,0,1.2c-0.4,0.7-1,1.2-1.7,1.6&#10;&#9;&#9;c-2,0.9-1.9-1.9-1.8-3.1c0-1.2,0.2-2.3,0.6-3.4l0.6-1.1c0.9-1.6-1.3-2.7-2.3-1.4c-0.3,0.4-0.5,0.7-0.7,1.1l-4.1,7.1&#10;&#9;&#9;c-0.3,0.5-0.7,1.7-1.1,2s-0.4,0.5-0.7-0.4c-0.4-1.5-0.7-3-0.9-4.5c-0.3-1.5-2.7-1.1-2.6,0.4c0.1,1.6-0.3,3.3-1,4.8&#10;&#9;&#9;c-0.1-0.2-0.2-0.4-0.2-0.5c-0.9-0.9-2.1-1.2-3.3-1c-0.2,0.2-0.3,0.4-0.4,0.7c-0.5,2.9-1.4,5.7-2.8,8.4c-1,1.6-1.8,0.4-2.2-0.9&#10;&#9;&#9;c-0.4-1.4-0.7-2.9-0.8-4.4c-0.1-0.4-0.3-0.8-0.7-1.1c-0.1-0.6-0.6-1.1-1.3-1.1c0,0,0,0,0,0c-0.1,0-0.2,0-0.3,0.1&#10;&#9;&#9;c-2.5,0.9-4.4,2.9-5.1,5.5c-0.3,1.2-0.5,2.5-0.4,3.8c-0.6,1.9-1.5,3.7-2.6,5.3c-1.2,1.7-3.8,5.4-6,3.2c-0.5-0.5-0.8-1.1-0.9-1.8&#10;&#9;&#9;c1.4-0.3,2.6-1.2,3.5-2.3c1.1-1.6,1.8-4.1,0.5-5.8c-1.2-1.3-3.2-1.4-4.5-0.3c-0.1,0.1-0.2,0.2-0.3,0.3c-1.2,1.4-1.8,3.2-1.9,5&#10;&#9;&#9;c-0.3,0.1-0.5,0.2-0.7,0.4c-1.3,1.4-2.8,2.7-4.5,3.7c-0.7-2.2-1.6-4.3-2.6-6.3c-1.3-2.8-3-5.9-2-9.1c0.8-2.4,4.9-6.7,7.1-3.4&#10;&#9;&#9;c2,3-1,6.3-2.8,8.5c-1.1,1.3,0.7,3.2,1.9,1.9c3-3.3,6.5-8.8,2.4-12.8s-9.8,0.9-11.1,5.1c-1.8,5.8,2.9,11.4,4.5,16.7l0.3,0.8l0,0&#10;&#9;&#9;c-2.5,1.2-4.8,2.5-7.1,4.1c-1.9,1.3-2.6,3.9-1.6,6c1.3,2,3.6,3.1,6,2.7c2.4-0.3,4.4-1.8,5.5-4c0.9-2.4,1-5,0.2-7.5&#10;&#9;&#9;c1.6-0.9,3.1-2,4.5-3.3c0.2,1.4,0.9,2.7,2,3.7c1.6,1.4,3.9,1.6,5.7,0.4c2.5-1.7,4.4-4.1,5.7-6.9l0.3,0.3c2,2,4.3,0.1,5.1-1.9&#10;&#9;&#9;c0.3-0.7,0.5-1.3,0.7-2c0.7,1,2,1.4,3.2,1.1c1.7-0.3,2.7-2,3.3-3.5c0.7-1.8,1.4-3.7,1.9-5.5c0.4,0.5,1,1,1.6,1.2&#10;&#9;&#9;c0.6,0.4,1.4,0.1,1.8-0.5c0.3-0.5,0.6-1,0.9-1.6c0.8,1.6,1.9,2.6,3.8,1.4c1.6-1,2.4-3.4,3.2-4.9l0,0c0.1,1.7,1.4,3.2,3.1,3.6&#10;&#9;&#9;c3.9,0.7,6.2-3.6,7.3-7.5l0.5,2.6c0.3,1.5,2.6,1.1,2.6-0.4c0-2.9,0.1-6.5,1.9-8.9c0.3,1.2,0.6,2.3,0.9,3.5s0.8,2.6,2.3,2.6&#10;&#9;&#9;c2.8,0,4.9-4.3,5.7-6.4C245,139.2,242.5,138.5,241.8,140.1z M173.6,180.5c-0.8,1.1-2,1.8-3.3,1.9c-1.3,0.1-3.2-0.6-3.2-2.2&#10;&#9;&#9;s2.2-2.6,3.4-3.3s2.6-1.4,3.8-2.1C174.8,176.7,174.6,178.8,173.6,180.5L173.6,180.5z M184.4,164.2c0.4-0.7,1.2-1.2,1.3,0&#10;&#9;&#9;c0,0.6-0.2,1.2-0.6,1.7c-0.4,0.5-0.9,1-1.5,1.2C183.7,166.1,184,165.1,184.4,164.2L184.4,164.2z M198.4,161.3c-0.1,0.7-1,5.3-2,4.2&#10;&#9;&#9;c-0.3-0.5-0.5-1-0.5-1.6c0.2-0.6,0.3-1.1,0.4-1.6c0.1-0.4,0-0.8-0.3-1.1c0-0.3,0.1-0.5,0.2-0.8c0.3-1.3,1.1-2.4,2.3-3.2&#10;&#9;&#9;C198.6,158.6,198.5,159.9,198.4,161.3z M230.2,127.4c0-0.3,0.4-2.8,1-2.7s0.1,2.3,0.1,2.6c-0.2,3.3-0.4,6.6-0.9,9.8&#10;&#9;&#9;c-0.2-1.2-0.3-2.4-0.3-3.6C229.9,131.4,230,129.4,230.2,127.4L230.2,127.4z" style="fill: rgb(104, 225, 253);"/>
</g>
<g id="Character_search-engine-78">
	<path class="st5_search-engine-78 targetColor" d="M235.7,184.1c-2,0-3.9-0.2-5.9-0.6c-9-1.9-16.6-7.7-21-15.7c-9.5-17.6-5-39.5,10.5-52&#10;&#9;&#9;c13.1-10.7,32.4-8.8,43.1,4.3c1.3,1.6,2.4,3.3,3.4,5.1c4.7,8.5,6.2,18.4,4.2,27.9C266.3,171.3,251.6,184.1,235.7,184.1z&#10;&#9;&#9; M238.8,115.4c-5.7,0.1-11.1,2-15.6,5.6c-13,10.6-16.7,28.8-8.8,43.6c3.4,6.4,9.5,11,16.6,12.5c14.5,2.9,29-8.4,32.4-25.4&#10;&#9;&#9;c1.7-7.9,0.5-16.2-3.4-23.3c-3.4-6.4-9.5-11-16.6-12.5C242,115.6,240.4,115.4,238.8,115.4L238.8,115.4z" style="fill: rgb(104, 225, 253);"/>
	<path class="st5_search-engine-78 targetColor" d="M268,159.9l52.6,26c0,0,2.1,6.9-2.5,8.6S260,167.3,260,167.3" style="fill: rgb(104, 225, 253);"/>
	<g class="st10_search-engine-78">
		<path d="M235.7,184.1c-2,0-3.9-0.2-5.9-0.6c-9-1.9-16.6-7.7-21-15.7c-9.5-17.6-5-39.5,10.5-52c13.1-10.7,32.4-8.8,43.1,4.3&#10;&#9;&#9;&#9;c1.3,1.6,2.4,3.3,3.4,5.1c4.7,8.5,6.2,18.4,4.2,27.9C266.3,171.3,251.6,184.1,235.7,184.1z M238.8,115.4c-5.7,0.1-11.1,2-15.6,5.6&#10;&#9;&#9;&#9;c-13,10.6-16.7,28.8-8.8,43.6c3.4,6.4,9.5,11,16.6,12.5c14.5,2.9,29-8.4,32.4-25.4c1.7-7.9,0.5-16.2-3.4-23.3&#10;&#9;&#9;&#9;c-3.4-6.4-9.5-11-16.6-12.5C242,115.6,240.4,115.4,238.8,115.4L238.8,115.4z"/>
		<path d="M268,159.9l52.6,26c0,0,2.1,6.9-2.5,8.6S260,167.3,260,167.3"/>
	</g>
	<path class="st11_search-engine-78" d="M296.7,175.1c-3.2-1.6-6.2-3.2-9.2-5c-0.5-1.2-1.1-2.3-1.8-3.4c-0.9-1.8-2.8-2.8-4.8-2.6&#10;&#9;&#9;c-0.9,0.1-1.5,0.9-1.4,1.7c0.1,0.8,0.7,1.4,1.5,1.4l0.2,0.3c-3.8,0.2-10.5,0.7-9,4.4c-0.1,0.1-0.3,0.2-0.4,0.4&#10;&#9;&#9;c-0.8,1-0.7,2.4,0.2,3.3c0.7,0.7,1.6,0.9,2.6,0.7c0.6,1.2,2.1,1.8,3.3,1.2l0.9-0.3c-0.1,0.8,0.5,1.5,1.3,1.6c0.1,0,0.3,0,0.4,0&#10;&#9;&#9;l3.2-0.6c7,2.2,10.6,3.1,13.2,4.9c1.1,0.7,0,1,0,0c0.5-0.6,0.4-1.6-0.3-2.1c0,0,0,0,0,0l-0.1-0.1l-0.3-0.2c0.7-0.5,0.8-1.5,0.2-2.2&#10;&#9;&#9;l-0.4-0.4c0.9-0.2,1.5-1.1,1.3-2C297.4,175.8,297.1,175.4,296.7,175.1L296.7,175.1z"/>
	<path class="st12_search-engine-78" d="M332.8,283.5l1.7,24.2l-3,2.6l-3.4-0.9c0,0,0.4-6.4-0.8-7.8s-3.2,5.6-4.4,5.5s-14.9-3.7-15.1-5.4&#10;&#9;&#9;c-0.3-2.2,2.8-4.8,8.6-3.4c6.3,1.6,7.4-5.6,8.4-12.4"/>
	<path class="st9_search-engine-78" d="M323,288.3c0,0,6,2.5,16.3-4c0,0-3.6-32.2-3.2-37.7s6.5-45.5-1.1-54.4s-21.4,76-20.7,76.5"/>
	<path class="st13_search-engine-78" d="M328,302.6l-0.6-0.9c-0.9-0.8-2.2-1.2-3.3-0.8c-1.6,0.8-1.4,6.5-1.4,6.5l5.7-2.1&#10;&#9;&#9;C328.5,304.3,328.3,303.4,328,302.6z"/>
	<path class="st12_search-engine-78" d="M314.1,295.4l-0.6,24.3l-3.3,2.3l-3.3-1.2c0,0,1-6.3,0-7.9s-3.7,5.2-4.9,5.1s-14.5-5.1-14.5-6.8&#10;&#9;&#9;c0-2.2,3.3-4.5,8.9-2.5c6.1,2.1,7.9-4.9,9.5-11.5"/>
	<path class="st13_search-engine-78" d="M307.5,313.9l-0.5-1c-0.8-0.9-2-1.3-3.2-1.1c-1.7,0.6-2,6.3-2,6.3l5.9-1.6&#10;&#9;&#9;C307.8,315.7,307.7,314.8,307.5,313.9z"/>
	<path class="st9_search-engine-78" d="M312.2,201.7c0,0-10.2,27.4-12.5,39.3s-2.4,56.4-1.6,57.6s10.7,3.3,17.4,3.2s5.8-52.7,5.8-52.7&#10;&#9;&#9;s18.2-46,13.3-51.1S312.2,201.7,312.2,201.7z"/>
	<path class="st12_search-engine-78" d="M311.8,202.2c9.2,2.9,21-0.6,26.6-8.5c-1.1-13-3.3-34.4-6.6-37.7c-4.8-4.6-15.2,2-19,8.4&#10;&#9;&#9;c-1.9,3.4-5.6,15.3-5.6,15.3l-14.2-8.1l-4.3,10.1c0,0,9.7,18.4,22.9,14.2L311.8,202.2z"/>
	<path class="st8_search-engine-78" d="M320.6,178.4c0-0.3-0.2-0.6-0.5-0.6c-0.3,0-0.6,0.2-0.6,0.6l0,0c0,4.1-0.1,8.5-2.1,12.3&#10;&#9;&#9;c-1.5,3.2-4.6,5.4-8.2,5.8c-0.7,0-0.7,1.1,0,1.1c3.8-0.4,7.1-2.6,8.9-5.9C320.5,187.6,320.7,182.8,320.6,178.4z"/>
	<path class="st13_search-engine-78" d="M315.7,132.4c-0.7,0.2-1.9,1.3-3.8,5.6s2.5,9.6,4.4,10.8s4.6,5.5,4.6,5.5s6.9,1.7,11.5-6.8&#10;&#9;&#9;S326.9,130,315.7,132.4z"/>
	<path class="st11_search-engine-78" d="M313.7,137.1c0,0-3.5,14.1,1.6,17.3s12-5.3,12.7-8.8S325,134.9,313.7,137.1z"/>
	<path class="st13_search-engine-78" d="M313.7,137.1c0,0-0.9,9.2,3.9,11.2s4.9,4.9,4.9,4.9s8.7-4.7,9.6-8.8S320.4,133.4,313.7,137.1z"/>
	<path class="st13_search-engine-78" d="M329.8,148.2c-1.7,13.8,1.8,31.5-4,44.5c-0.4,0.8-1.1,4.4-1.7,4.4l13.9-7.6c5.6-3.5,9.7-5.7,7.7-14.5&#10;&#9;&#9;s-13.2-27.5-13.2-27.5L329.8,148.2z"/>
	<path class="st8_search-engine-78" d="M308.5,172.9c-0.9,3.7-1.6,7.4-2.1,11.1c-0.1,0.7,1,0.7,1.1,0c0.5-3.6,1.1-7.3,2-10.8c0-0.3-0.3-0.5-0.6-0.5&#10;&#9;&#9;C308.8,172.6,308.6,172.7,308.5,172.9z"/>
	<path class="st14_search-engine-78" d="M328.1,154.5l-1.3-2.8c-2.6,1.3-5.2,2.5-7.9,3.4c-3.3,1-2.4,4.8-2.4,4.8S324.1,159.9,328.1,154.5z"/>
</g>
<g id="Chair_search-engine-78">
	<path class="st12_search-engine-78" d="M249.8,359.3c-4.4-3.4-10.1-4.7-15.6-3.6c-6.1,1.4-11.4,5.2-17.6,6.1c-1,0.1-4.9-0.1-5.5,0.5&#10;&#9;&#9;c-17.3,16.4,31.1,14.6,31.1,14.6c4.8-3.9,9.1-7.6,13.8-11.5C254.6,362.2,252.2,361,249.8,359.3z"/>
	<path class="st12_search-engine-78" d="M227,383.1l-1.7,49.4c0,0.8,0.7,1.5,1.5,1.5c0.8,0,1.5-0.7,1.5-1.5l1.7-49.5C230,381.2,227.1,381.2,227,383.1&#10;&#9;&#9;z"/>
	<path class="st12_search-engine-78" d="M263.3,409.5c-8.8-8.6-17.3-17.6-25.4-27c-1.2-1.4-3.3,0.6-2.1,2.1c8,9.4,16.4,18.4,25.4,27&#10;&#9;&#9;c0.6,0.5,1.5,0.5,2.1-0.1C263.8,410.9,263.8,410.1,263.3,409.5z"/>
	<path class="st12_search-engine-78" d="M216.9,378.5c-6.8,12.9-13.3,26-19.3,39.3c-0.8,1.7,1.8,3.2,2.5,1.5c6.1-13.3,12.5-26.5,19.3-39.4&#10;&#9;&#9;C220.3,378.3,217.8,376.8,216.9,378.5z"/>
	<path class="st5_search-engine-78 targetColor" d="M255.2,363.9c-2.9,4-7,7-11.7,8.5c-6.6,2-16.2,1-19.7-5.8c-6.3-12.4-0.4-27.9-7.1-40c-1.6-3.1-4.4-5.4-7.7-6.3&#10;&#9;&#9;c-4.3-0.9-7.3,2.3-8.9,6c-2.8,6.8-2.7,15.2-2.6,22.4c0,5.8,0.4,11.7,1.3,17.4c0,0,4,24.2,35.6,17.7c5.5-1,10.7-2.9,15.5-5.7&#10;&#9;&#9;c2.5-1.4,4.6-3.3,6.3-5.5C258.1,370,256.8,366.7,255.2,363.9z" style="fill: rgb(104, 225, 253);"/>
</g>
<g id="Board_search-engine-78">
	<polyline class="st13_search-engine-78" points="390.7,81.5 396.8,80.1 465.2,119.5 464.1,254.2 461.6,255.7 &#9;"/>
	<polygon class="st12_search-engine-78" points="390.7,81.5 389.9,214.5 461.6,255.7 461.6,121.6 &#9;"/>
	<polygon class="st0_search-engine-78" points="393.2,88.8 393.2,212.6 458.3,248.7 458.3,125.6 &#9;"/>
	<polyline class="st12_search-engine-78" points="415.3,122.6 415.3,141.3 402.9,135.4 402.9,119.5 &#9;"/>
	<path class="st8_search-engine-78" d="M401.9,115l13.4,7.6c0,0,0.7,12.5-2.9,16.1l-12.1-6C400.3,132.6,404.5,123.3,401.9,115z"/>
	<polyline class="st12_search-engine-78" points="447.7,145.2 447.7,169.4 431.7,161.7 431.7,141.3 &#9;"/>
	<path class="st14_search-engine-78" d="M430.5,135.4l17.2,9.8c0,0,0.9,16.1-3.7,20.7l-15.6-7.7C428.3,158.2,433.7,146.2,430.5,135.4z"/>
	<polyline class="st12_search-engine-78" points="413.9,147 413.9,165.8 401.5,159.8 401.5,144 &#9;"/>
	<path class="st9_search-engine-78" d="M400.6,139.4l13.3,7.6c0,0,0.7,12.5-2.9,16.1l-12.1-6C398.9,157.1,403.1,147.8,400.6,139.4z"/>
	<polyline class="st12_search-engine-78" points="413.2,171.2 413.2,190 400.8,184.1 400.8,168.2 &#9;"/>
	<path class="st9_search-engine-78" d="M399.9,163.7l13.3,7.6c0,0,0.7,12.5-2.9,16.1l-12.1-6.1C398.2,181.2,402.4,172,399.9,163.7z"/>
	<polygon class="st9_search-engine-78" points="422.6,170.7 448.5,185.1 448.5,196.2 422.6,182.1 &#9;"/>
</g>
<g id="Plant_search-engine-78">
	<polyline class="st12_search-engine-78" points="139.6,358.1 139.6,379.9 174.7,379.9 174.7,358.1 &#9;"/>
	<ellipse class="st13_search-engine-78" cx="157.1" cy="358.1" rx="17.6" ry="8.6"/>
	<ellipse class="st12_search-engine-78" cx="157.1" cy="380.7" rx="17.6" ry="8.6"/>
	<path class="st15_search-engine-78" d="M176.8,307.6c-3.7-1.6-8.9-6.6-13.4-6.4c-1.5,4.3-2.4,8.8-2.7,13.4c-0.8,7.4-1,14.8-0.4,22.3&#10;&#9;&#9;c0.1,1.7,0.2,3.3,0.4,5c0,0.5,0.2,1,0.4,1.4v17.2c0,0.3,0.3,0.5,0.6,0.5c0.2,0,0.4-0.2,0.5-0.5v-16.6c1.7-0.6,3.4-1.4,5-2.3&#10;&#9;&#9;c3.3-2.1,5.8-5.2,7.1-8.9c2.8-7.9,1.1-16.7,3.7-24.5C177.6,307.9,177.2,307.7,176.8,307.6z"/>
	<path class="st14_search-engine-78" d="M169.2,294.6c-2.1,1.2-3.8,3-5,5.1c-0.3,0.5-0.6,1-0.8,1.6l-0.2,0.3l0,0c-0.3,0.9-0.6,1.8-0.8,2.7&#10;&#9;&#9;c0.4-0.7,1.1-1.2,1.9-1.5c0.9-0.4,2-0.5,2.9-0.3c1,0.4,1.9,0.8,2.7,1.4c1.3,0.8,2.5,1.6,3.7,2.4c5.8,3.7,13.6,4.1,18.1-1.3&#10;&#9;&#9;c0-0.2,0.1-0.4,0.2-0.6C192.5,300.8,182.1,287.1,169.2,294.6z"/>
	<path class="st15_search-engine-78" d="M189.1,307.4l0.7-0.5c0-0.2,0-0.3-0.1-0.4c-3.5-3.6-7.3-7.2-12.1-9c-3.4-1.3-7.2-1.7-10.8-1.1&#10;&#9;&#9;c-0.4,0.5-0.8,0.9-1.1,1.4c4.1-1.1,8.5-0.7,12.4,1c4.1,2,7.8,4.9,10.9,8.4C189,307.3,189.1,307.4,189.1,307.4z"/>
	<path class="st15_search-engine-78" d="M130.1,315.3c-5.2,2.7-8.3,8.2-7.9,14.1c0.4,10.4,17.5,0.3,22.1-8.5s5.3,3.7,5.3,3.7"/>
	<path class="st14_search-engine-78" d="M145.5,311.6c-3.2,0-6.4,0.4-9.5,1.4c-2.1,0.5-4.1,1.3-5.9,2.3c1.1,0.7,2.2,1.3,3.4,1.8&#10;&#9;&#9;c2.2,0.7,4.2,2.1,5.5,4c0.3,0.5,0.5,1,0.7,1.6c1,3.4,0.1,7.6,1.6,11s4.3,6.5,8.3,6.7c4.8,0.3,7-4.3,7.9-8.4s2.2-9.5,0.7-13.6&#10;&#9;&#9;C156.5,313.6,150,311.9,145.5,311.6z"/>
	<path class="st15_search-engine-78" d="M151.8,327.9c-2-6.5-6.3-12.7-12.6-15.6H139l-0.3,0.1l-1.1,0.3c7.3,2.7,11.9,9.9,13.8,17.3&#10;&#9;&#9;c2.4,9.4,1.6,19.6,1.6,29.3c0.1,0.3,0.3,0.5,0.6,0.4c0.2,0,0.4-0.2,0.4-0.4C154,348.9,154.9,337.8,151.8,327.9z"/>
</g>
</svg>