<svg version="1.1" id="Layer_1" xmlns="http://www.w3.org/2000/svg" xmlns:xlink="http://www.w3.org/1999/xlink" x="0px" y="0px" viewBox="0 0 500 500" style="width: 144px;" xml:space="preserve" data-imageid="data-settings-68" imageName="Data Settings" class="illustrations_image">
<style type="text/css">
	.st0_data-settings-68{fill:#093F68;}
	.st1_data-settings-68{fill:#FFFFFF;}
	.st2_data-settings-68{fill:#68E1FD;}
	.st3_data-settings-68{fill:#DFEAEF;}
	.st4_data-settings-68{fill:#F56132;}
	.st5_data-settings-68{fill:#FFBC0E;}
</style>
<g id="document_data-settings-68">
	<g id="document-2_data-settings-68">
		<polygon class="st0_data-settings-68" points="316.8,206.9 316.8,187.5 390.1,187.5 390.1,206.9 390.1,237.1 390.1,357.5 159.7,357.5 159.7,206.9 &#10;&#9;&#9;&#9;&#9;&#9;"/>
		<path class="st0_data-settings-68" d="M390.1,359.3H159.7c-1,0-1.8-0.8-1.8-1.8c0,0,0,0,0,0V206.9c0-1,0.8-1.8,1.8-1.8c0,0,0,0,0,0H315v-17.5&#10;&#9;&#9;&#9;c0-1,0.8-1.8,1.8-1.8h73.3c1,0,1.8,0.8,1.8,1.8v170C391.9,358.5,391.1,359.3,390.1,359.3z M161.5,355.7h226.8V189.4h-69.6v17.5&#10;&#9;&#9;&#9;c0,1-0.8,1.8-1.8,1.8c0,0,0,0,0,0H161.5L161.5,355.7z"/>
		<polygon class="st1_data-settings-68" points="183.8,326.8 390.1,326.8 390.1,153.6 350.9,116.9 183.8,116.9 &#9;&#9;"/>
		<path class="st0_data-settings-68" d="M390.1,328.6H183.8c-1,0-1.8-0.8-1.8-1.8c0,0,0,0,0,0V116.9c0-1,0.8-1.8,1.8-1.8l0,0h167&#10;&#9;&#9;&#9;c0.5,0,0.9,0.2,1.2,0.5l39.3,36.8c0.4,0.3,0.6,0.8,0.6,1.3v173.1C391.9,327.8,391.1,328.6,390.1,328.6z M185.7,324.9h202.6V154.4&#10;&#9;&#9;&#9;l-38.1-35.7H185.7L185.7,324.9z"/>
		<polygon class="st2_data-settings-68 targetColor" points="159.7,357.5 390.1,357.5 433.2,228.8 202.7,228.8 &#9;&#9;" style="fill: rgb(104, 225, 253);"/>
		<path class="st0_data-settings-68" d="M390.1,359.3H159.7c-1,0-1.8-0.8-1.8-1.8c0-0.2,0-0.4,0.1-0.6L201,228.2c0.2-0.8,0.9-1.3,1.7-1.3h230.4&#10;&#9;&#9;&#9;c0.6,0,1.1,0.3,1.5,0.8c0.3,0.5,0.4,1.1,0.2,1.6l-43.1,128.7C391.6,358.8,390.9,359.3,390.1,359.3z M162.2,355.7h226.5l41.8-125&#10;&#9;&#9;&#9;H204.1L162.2,355.7z"/>
		<path class="st0_data-settings-68" d="M385.5,256.1h-49.8c-1,0.1-1.9-0.7-2-1.7c-0.1-1,0.7-1.9,1.7-2c0.1,0,0.2,0,0.3,0h49.8c1-0.1,1.9,0.7,2,1.7&#10;&#9;&#9;&#9;c0.1,1-0.7,1.9-1.7,2C385.7,256.2,385.6,256.2,385.5,256.1L385.5,256.1z"/>
		<polygon class="st1_data-settings-68" points="350.9,116.9 350.8,153.6 390.1,153.6 &#9;&#9;"/>
		<path class="st0_data-settings-68" d="M390.1,155.5h-39.3c-1,0-1.8-0.8-1.8-1.8l0.1-36.7c0-1,0.8-1.8,1.9-1.8c0.5,0,0.9,0.2,1.2,0.5l39.3,36.8&#10;&#9;&#9;&#9;c0.7,0.7,0.8,1.8,0.1,2.6C391.1,155.3,390.6,155.5,390.1,155.5z M352.6,151.8h32.8l-32.8-30.7L352.6,151.8z"/>
	</g>
	<path class="st3_data-settings-68" d="M335.7,145.6H214.4c-1,0.1-1.9-0.7-2-1.7s0.7-1.9,1.7-2c0.1,0,0.2,0,0.3,0h121.3c1,0.1,1.8,1,1.7,2&#10;&#9;&#9;C337.4,144.8,336.6,145.5,335.7,145.6z"/>
	<path class="st3_data-settings-68" d="M375.9,167.9H214.4c-1,0.1-1.9-0.7-2-1.7s0.7-1.9,1.7-2c0.1,0,0.2,0,0.3,0h161.5c1,0.1,1.8,1,1.7,2&#10;&#9;&#9;C377.6,167.1,376.8,167.9,375.9,167.9z"/>
	<path class="st3_data-settings-68" d="M375.9,190.2H227.7c-1,0-1.8-0.8-1.8-1.8c0-1,0.8-1.8,1.8-1.8h148.2c1,0,1.8,0.8,1.8,1.8&#10;&#9;&#9;C377.8,189.4,377,190.2,375.9,190.2z"/>
	<path class="st3_data-settings-68" d="M341.1,212.6H214.4c-1,0-1.8-0.8-1.8-1.8c0-1,0.8-1.8,1.8-1.8c0,0,0,0,0,0h126.7c1,0,1.8,0.8,1.8,1.8&#10;&#9;&#9;C343,211.7,342.1,212.5,341.1,212.6z"/>
</g>
<g id="gears_data-settings-68">
	<g id="gears-2_data-settings-68">
		<path class="st4_data-settings-68" d="M235.3,302.2c-0.1-4-2.9-7.3-6.8-8.2c-3.3-0.7-6.6-1.2-9.9-1.8c-1,0-1.8-0.7-2-1.6c-1-2.6-2.1-5.2-3.2-7.8&#10;&#9;&#9;&#9;c-0.4-0.6-0.3-1.5,0.2-2c2-2.7,4-5.5,5.9-8.3c2.2-3.3,1.9-7.7-0.8-10.6c-3-3.3-6.3-6.5-9.4-9.6c-3.7-3.7-8.4-4.1-12.7-1.2&#10;&#9;&#9;&#9;c-2.5,1.7-5,3.5-7.4,5.3c-0.5,0.5-1.4,0.6-2,0.2c-2.8-1.2-5.6-2.4-8.5-3.5c-0.7-0.2-1.2-0.8-1.3-1.5c-0.5-3-1-6.1-1.5-9.1&#10;&#9;&#9;&#9;c-0.6-4.4-4.3-7.7-8.8-7.9c-4.7-0.1-9.3-0.1-14,0c-4.1,0.1-7.6,2.9-8.5,6.9c-0.8,3.4-1.3,6.8-1.8,10.3c-0.1,0.7-0.6,1.3-1.3,1.5&#10;&#9;&#9;&#9;c-2.7,1.1-5.4,2.2-8.1,3.4c-0.6,0.4-1.4,0.3-1.9-0.1c-2.7-2-5.4-4-8.2-5.9c-3.3-2.3-7.7-2-10.7,0.7c-3.6,3.3-7,6.6-10.3,10.2&#10;&#9;&#9;&#9;s-3.4,7.9-0.6,11.9c1.8,2.6,3.7,5.2,5.5,7.8c0.2,0.4,0.3,0.9,0.2,1.4c-1.1,2.9-2.3,5.8-3.5,8.7c-0.2,0.4-0.6,0.8-1.1,0.9&#10;&#9;&#9;&#9;c-3,0.6-6,1-9.1,1.5c-4.6,0.7-8,4.1-8.1,8.5c-0.2,4.9-0.1,9.8,0,14.6c0.2,3.9,2.9,7.2,6.7,8.1c3.5,0.8,7,1.3,10.5,1.9&#10;&#9;&#9;&#9;c0.7,0.1,1.3,0.5,1.5,1.2c1.1,2.8,2.3,5.5,3.5,8.2c0.3,0.6,0.3,1.3-0.2,1.8c-1.8,2.5-3.7,5-5.4,7.6c-2.9,3.8-2.4,9.1,1.1,12.3&#10;&#9;&#9;&#9;c2.9,3,5.9,5.9,8.9,8.9c3.7,3.6,8.3,4,12.6,1c2.6-1.8,5.1-3.6,7.6-5.4c0.5-0.4,1.2-0.4,1.7-0.1c2.6,1.1,5.2,2.2,7.8,3.2&#10;&#9;&#9;&#9;c0.8,0.2,1.4,1,1.4,1.8c0.4,3,0.9,6,1.5,9c0.8,4.4,4.1,7.7,8.4,7.8c4.9,0.2,9.8,0.1,14.7,0c4-0.2,7.3-3,8.2-6.9&#10;&#9;&#9;&#9;c0.7-3.3,1.2-6.7,1.8-10c0.1-0.8,0.6-1.5,1.4-1.8c2.8-1,5.5-2.2,8.2-3.4c0.6-0.3,1.3-0.2,1.8,0.2c2.5,1.8,5.1,3.6,7.6,5.4&#10;&#9;&#9;&#9;c1.8,1.3,3.9,1.9,6.1,1.9c2,0,4-0.8,5.4-2.2c3.2-3,6.3-6.2,9.4-9.3c3.8-3.8,4.2-8.5,1.1-12.9c-1.7-2.5-3.5-5-5.3-7.4&#10;&#9;&#9;&#9;c-0.4-0.5-0.5-1.2-0.2-1.8c1.2-2.7,2.4-5.5,3.4-8.3c0.2-0.7,0.9-1.2,1.6-1.3l9.1-1.5c4.4-0.5,7.8-4.2,7.9-8.7&#10;&#9;&#9;&#9;C235.4,311.8,235.4,307,235.3,302.2z M160.3,341.8c-17.8-0.1-32.3-14.6-32.2-32.4s14.6-32.3,32.4-32.2&#10;&#9;&#9;&#9;c17.8,0.1,32.3,14.6,32.2,32.4C192.7,327.4,178.2,341.9,160.3,341.8C160.3,341.8,160.3,341.8,160.3,341.8z"/>
		<path class="st0_data-settings-68" d="M159.4,386.3c-2.1,0-4.2,0-6.3-0.1c-5-0.1-9.3-4-10.3-9.4c-0.6-3-1.1-6.1-1.5-9.1c0-0.1,0-0.1,0-0.2h-0.1&#10;&#9;&#9;&#9;c-2.6-1-5.2-2.1-7.8-3.2c-2.4,1.7-4.9,3.5-7.4,5.3c-5.1,3.5-10.7,3.1-15.1-1.2l-3-3c-1.9-1.9-4-3.9-5.9-5.9&#10;&#9;&#9;&#9;c-4.2-3.9-4.8-10.3-1.3-14.9c1.3-1.9,2.6-3.8,4-5.6l1.4-1.9c-1.2-2.7-2.4-5.4-3.5-8.1l-2.6-0.4c-2.6-0.4-5.3-0.9-8-1.5&#10;&#9;&#9;&#9;c-4.7-1.1-8.1-5.2-8.3-10c-0.1-4.8-0.2-9.8,0-14.8c0.1-5.2,4.2-9.5,9.8-10.4l2.7-0.4c2.1-0.3,4-0.6,6-1c1.1-2.7,2.2-5.4,3.3-8.1&#10;&#9;&#9;&#9;c-0.8-1.2-1.7-2.5-2.6-3.7s-1.9-2.6-2.8-3.9c-3.4-4.8-3.1-10.2,0.8-14.4c3-3.3,6.3-6.6,10.4-10.3c3.7-3.3,9.1-3.7,13.2-0.9&#10;&#9;&#9;&#9;c2.8,1.9,5.5,3.9,8.1,5.8l0,0c2.7-1.2,5.4-2.3,8.1-3.4h0.1h0.1c0.5-3.8,1-7,1.8-10.4c1.1-4.9,5.4-8.3,10.4-8.4&#10;&#9;&#9;&#9;c4.8-0.1,9.4-0.1,14.1,0c5.4,0.2,10,4.2,10.7,9.6c0.2,1.4,0.5,3,0.7,4.5s0.5,3,0.8,4.5l0,0c2.9,1.1,5.8,2.3,8.5,3.5h0.1&#10;&#9;&#9;&#9;c2.6-1.9,5.1-3.7,7.4-5.3c5.2-3.5,10.9-2.9,15.2,1.4l1.9,1.9c2.5,2.5,5.2,5.1,7.6,7.8c3.3,3.6,3.7,9,1,13c-1.8,2.7-3.8,5.5-6,8.4&#10;&#9;&#9;&#9;v0c1.1,2.6,2.2,5.3,3.2,7.9c0,0.1,0.1,0.2,0.1,0.3c0.1,0,0.3,0,0.4,0.1l3.3,0.6c2.2,0.4,4.4,0.8,6.7,1.2c4.8,1.1,8.2,5.2,8.4,10.1&#10;&#9;&#9;&#9;l0,0c0.1,4.8,0.1,9.7,0.1,14c-0.1,5.5-4.2,10-9.6,10.7l-4.5,0.7l-4.6,0.8v0c0,0,0,0,0,0c-1,2.9-2.3,5.9-3.4,8.3&#10;&#9;&#9;&#9;c1.9,2.6,3.7,5,5.3,7.4c3.6,5.2,3.1,11-1.3,15.4l-2.3,2.3c-2.3,2.3-4.7,4.7-7.1,7c-1.8,1.8-4.2,2.8-6.8,2.7&#10;&#9;&#9;&#9;c-2.6,0-5.1-0.8-7.3-2.3l-3.7-2.6c-1.3-0.9-2.5-1.8-3.8-2.7c-2.7,1.2-5.4,2.4-8.2,3.4c0,0-0.1,0-0.1,0.2s0,0.1,0,0.1&#10;&#9;&#9;&#9;c-0.2,1.1-0.4,2.3-0.6,3.5c-0.4,2.2-0.8,4.4-1.2,6.6c-1.1,4.8-5.2,8.3-10.1,8.5h-0.1C165.1,386.3,162.3,386.3,159.4,386.3z&#10;&#9;&#9;&#9; M145.3,367.3c0.4,2.9,0.9,5.9,1.5,8.8c0.7,3.6,3.3,6.1,6.5,6.2c4.9,0.2,9.8,0.1,14.6,0c3.1-0.1,5.7-2.3,6.3-5.4&#10;&#9;&#9;&#9;c0.4-2.1,0.8-4.3,1.2-6.4c0.2-1.2,0.4-2.3,0.6-3.5c0.2-1.5,1.2-2.8,2.7-3.4c2.8-1,5.5-2.2,8.1-3.4c1.2-0.6,2.7-0.4,3.8,0.4&#10;&#9;&#9;&#9;l3.8,2.7c1.3,0.9,2.6,1.8,3.8,2.7c1.4,1,3.2,1.6,4.9,1.5c1.5,0,2.9-0.6,4-1.6c2.4-2.3,4.8-4.7,7.1-7c0.8-0.8,1.5-1.6,2.3-2.3&#10;&#9;&#9;&#9;c3.1-3.1,3.4-6.7,0.9-10.3c-1.6-2.4-3.4-4.8-5.3-7.4c-0.9-1.1-1-2.6-0.4-3.9c1-2.3,2.3-5.2,3.3-8c0.5-1.5,1.7-2.5,3.3-2.7l4.5-0.7&#10;&#9;&#9;&#9;l4.5-0.8c3.5-0.4,6.1-3.3,6.2-6.8c0-4.3,0-9.1-0.1-13.9c-0.1-3.1-2.3-5.6-5.2-6.3c-2.1-0.5-4.4-0.8-6.5-1.2l-3.2-0.5&#10;&#9;&#9;&#9;c-1.8-0.1-3.3-1.3-3.7-3c-1-2.5-2-5-3.1-7.5c-0.7-1.3-0.6-3,0.4-4.1c2.1-2.8,4.1-5.6,5.8-8.2c1.7-2.5,1.5-5.9-0.6-8.1&#10;&#9;&#9;&#9;c-2.4-2.6-5-5.2-7.5-7.7l-1.9-1.9c-3-3-6.6-3.3-10.2-0.9c-2.3,1.6-4.8,3.3-7.2,5.2c-1.2,1-2.9,1.2-4.2,0.5&#10;&#9;&#9;&#9;c-2.7-1.1-5.4-2.3-8.2-3.4c-1.4-0.4-2.4-1.6-2.6-3.1l-0.7-4.5c-0.2-1.5-0.5-3-0.8-4.5c-0.5-3.5-3.4-6.1-6.9-6.2&#10;&#9;&#9;&#9;c-4.6-0.1-9.2-0.1-13.9,0c-3.2,0.1-5.9,2.3-6.6,5.3c-0.8,3.2-1.2,6.4-1.8,10.1c-0.2,1.4-1.2,2.7-2.6,3.1l0,0&#10;&#9;&#9;&#9;c-2.6,1-5.2,2.1-7.8,3.3c-1.2,0.7-2.8,0.6-3.9-0.2c-2.7-2-5.4-4-8.2-5.9c-2.5-1.8-6-1.6-8.2,0.5c-4,3.7-7.2,6.9-10.2,10.1&#10;&#9;&#9;&#9;c-3.3,3.6-2.1,7.1-0.4,9.4c0.9,1.3,1.8,2.6,2.7,3.9s1.9,2.6,2.8,3.9c0.1,0.1,0.1,0.2,0.1,0.2c0.4,0.8,0.5,1.8,0.4,2.7&#10;&#9;&#9;&#9;c0,0.1,0,0.2-0.1,0.3c-1.1,2.9-2.3,5.9-3.5,8.7l-0.1,0.2c-0.5,1-1.4,1.8-2.5,2c-2.2,0.4-4.3,0.8-6.4,1.1l-2.8,0.4&#10;&#9;&#9;&#9;c-3.8,0.6-6.3,3.2-6.4,6.6c-0.2,4.9-0.1,9.8,0,14.5c0.1,3,2.3,5.5,5.2,6.2c2.6,0.6,5.2,1,7.7,1.4l2.7,0.4c1.4,0.2,2.6,1.2,3,2.5&#10;&#9;&#9;&#9;c1.1,2.7,2.3,5.4,3.4,8c0.7,1.3,0.5,2.8-0.5,3.9l-1.4,1.9c-1.3,1.8-2.7,3.6-3.9,5.5l-0.1,0.1c-2.3,2.9-1.9,7.1,0.9,9.6l0.1,0.1&#10;&#9;&#9;&#9;c1.9,2,3.9,4,5.9,5.9l3,3c3,2.9,6.6,3.2,10,0.8c2.6-1.8,5.1-3.6,7.5-5.4c1.1-0.8,2.5-0.9,3.7-0.3c2.5,1.1,5.1,2.1,7.6,3.1&#10;&#9;&#9;&#9;C144,364.2,145.2,365.6,145.3,367.3z M188.4,363.9L188.4,363.9z M215.2,336.6L215.2,336.6z M217.9,326.6l0.7,1.9&#10;&#9;&#9;&#9;c0,0,0.1,0,0.1-0.1L217.9,326.6z M160.3,343.8L160.3,343.8c-9.2,0-18-3.7-24.4-10.3c-13.1-13.5-13-35,0.3-48.3&#10;&#9;&#9;&#9;c13.4-13.4,35.2-13.3,48.5,0.1c13.4,13.4,13.3,35.2-0.1,48.5C178.2,340.2,169.4,343.8,160.3,343.8L160.3,343.8z M160.3,279.2&#10;&#9;&#9;&#9;c-16.7,0-30.2,13.5-30.2,30.2c-0.1,8,3,15.6,8.6,21.3c11.8,11.9,31,12.1,42.9,0.3s12.1-31,0.3-42.9l0,0&#10;&#9;&#9;&#9;c-5.7-5.7-13.4-8.9-21.4-8.9H160.3z"/>
		<g id="ahcQ9Z_data-settings-68">
			<path class="st5_data-settings-68" d="M164.9,204.2c1.2-2.4,0.6-5.3-1.4-7.1c-1.7-1.5-3.5-2.9-5.3-4.2c-0.5-0.3-0.8-1-0.6-1.6&#10;&#9;&#9;&#9;&#9;c0.3-1.9,0.5-3.8,0.6-5.7c0-0.5,0.3-0.9,0.7-1.1c2.1-1,4.2-1.9,6.2-3c2.4-1.2,3.6-4,3-6.6c-0.7-3-1.6-5.9-2.5-8.8&#10;&#9;&#9;&#9;&#9;c-0.8-3.2-3.9-5.3-7.2-4.8c-2,0.2-4.1,0.5-6.1,0.7c-0.5,0.1-1-0.1-1.2-0.5c-1.3-1.6-2.6-3.3-3.9-4.8c-0.4-0.3-0.5-0.8-0.3-1.3&#10;&#9;&#9;&#9;&#9;c0.7-1.9,1.4-3.9,2.1-5.9c1-2.8-0.1-6-2.7-7.5c-2.7-1.6-5.5-3.1-8.3-4.5c-2.5-1.3-5.5-0.7-7.3,1.4c-1.6,1.8-3,3.7-4.4,5.5&#10;&#9;&#9;&#9;&#9;c-0.3,0.4-0.8,0.6-1.3,0.5l-6-0.6c-0.5,0-0.9-0.3-1.1-0.7c-1-2.1-1.9-4.1-3-6.1c-1.2-2.4-4-3.7-6.6-3.1c-3.2,0.8-6.3,1.7-9.4,2.7&#10;&#9;&#9;&#9;&#9;c-2.9,0.9-4.7,3.9-4.1,6.9c0.2,2.1,0.5,4.3,0.8,6.4c0,0.3-0.1,0.7-0.4,0.9c-1.6,1.4-3.3,2.7-4.9,4.1c-0.3,0.2-0.7,0.3-1,0.2&#10;&#9;&#9;&#9;&#9;c-2-0.6-3.9-1.3-5.9-2c-2.8-1.1-5.9-0.1-7.5,2.4c-1.7,2.9-3.2,5.8-4.7,8.7c-1.2,2.4-0.6,5.3,1.4,7c1.8,1.6,3.7,3,5.6,4.5&#10;&#9;&#9;&#9;&#9;c0.4,0.3,0.6,0.7,0.5,1.2l-0.6,6c0,0.5-0.3,0.9-0.7,1c-1.9,0.9-3.8,1.8-5.7,2.8c-2.9,1.3-4.4,4.6-3.3,7.6l2.4,8.1&#10;&#9;&#9;&#9;&#9;c0.8,3.2,3.9,5.2,7.1,4.7c2.1-0.2,4.2-0.5,6.3-0.8c0.4-0.1,0.8,0.1,1,0.4c1.2,1.5,2.4,3,3.6,4.4c0.4,0.4,0.5,1.1,0.3,1.6&#10;&#9;&#9;&#9;&#9;c-0.7,1.9-1.3,3.9-2,5.8c-1,2.7,0,5.8,2.4,7.4c2.9,1.7,5.8,3.3,8.8,4.8c2.4,1.2,5.3,0.6,7.1-1.4c1.5-1.7,2.9-3.6,4.3-5.4&#10;&#9;&#9;&#9;&#9;c0.3-0.5,0.9-0.7,1.4-0.6c2,0.3,4,0.5,5.9,0.6c0.4,0,0.8,0.3,1,0.7c0.9,1.9,1.8,3.8,2.8,5.7c0.6,1.3,1.7,2.4,3,3.1&#10;&#9;&#9;&#9;&#9;c1.2,0.7,2.7,0.8,4,0.4c2.9-0.8,5.8-1.6,8.6-2.5c3.3-0.7,5.5-3.9,4.9-7.3c-0.2-2-0.5-4.1-0.7-6.1c-0.1-0.4,0.1-0.9,0.5-1.1&#10;&#9;&#9;&#9;&#9;c1.6-1.2,3.2-2.5,4.7-3.8c0.3-0.4,0.9-0.4,1.3-0.2c2,0.7,3.9,1.4,5.9,2.1c2.8,1.1,6,0,7.5-2.6&#10;&#9;&#9;&#9;&#9;C161.9,209.9,163.4,207.1,164.9,204.2z M107.5,203.5c-10.6-5.8-14.5-19.1-8.7-29.7c5.8-10.6,19.1-14.5,29.7-8.7&#10;&#9;&#9;&#9;&#9;c10.6,5.8,14.5,19.1,8.7,29.7C131.4,205.4,118.1,209.3,107.5,203.5z"/>
			<path class="st0_data-settings-68" d="M126.3,236.6c-1.2,0-2.4-0.3-3.5-0.9c-1.6-0.9-3-2.3-3.8-3.9c-0.9-1.8-1.8-3.6-2.6-5.3&#10;&#9;&#9;&#9;&#9;c-1.7-0.1-3.5-0.3-5.3-0.5l-0.8,1.1c-1.1,1.4-2.2,2.9-3.4,4.2c-2.4,2.7-6.3,3.4-9.5,1.9c-2.8-1.4-5.8-3-8.9-4.9l-0.1-0.1&#10;&#9;&#9;&#9;&#9;c-3.2-2.1-4.5-6.2-3.1-9.8c0.3-0.9,0.6-1.8,1-2.8s0.6-1.8,0.9-2.7c-1.1-1.2-2.1-2.6-3.2-3.9c-1.9,0.3-3.8,0.6-5.8,0.7&#10;&#9;&#9;&#9;&#9;c-4.2,0.6-8.3-2-9.3-6.2l-2.4-8c-1.3-3.9,0.5-8.3,4.3-10c1.8-0.9,3.6-1.8,5.3-2.6l0.5-5.2l-1.2-0.9c-1.4-1.1-2.8-2.2-4.2-3.4&#10;&#9;&#9;&#9;&#9;c-2.7-2.3-3.4-6.2-1.9-9.4c1.5-2.9,3-5.9,4.8-8.8c2.1-3.4,6.3-4.8,10-3.2l1.2,0.4c1.4,0.5,2.7,1,4.1,1.4c0.7-0.6,1.4-1.2,2.1-1.7&#10;&#9;&#9;&#9;&#9;s1.4-1.1,2-1.7c-0.3-1.9-0.5-3.9-0.7-5.8c-0.7-4,1.6-7.9,5.5-9.1c3.3-1.1,6.4-2,9.5-2.7c3.6-0.8,7.2,0.9,8.9,4.1&#10;&#9;&#9;&#9;&#9;c0.9,1.6,1.6,3.1,2.4,4.8l0.4,0.9l5.4,0.6l0.7-0.9c1.1-1.5,2.3-3,3.6-4.4c2.4-2.8,6.4-3.6,9.7-1.8c3,1.5,5.9,3,8.4,4.6&#10;&#9;&#9;&#9;&#9;c3.4,2,4.9,6.2,3.6,9.9c-0.6,1.9-1.3,3.7-2,5.5c0.8,1,1.6,2,2.4,3l1.1,1.3l2.7-0.3c1-0.1,2-0.2,3-0.4c4.3-0.7,8.3,2.1,9.4,6.3&#10;&#9;&#9;&#9;&#9;c0.9,2.9,1.8,5.8,2.5,8.9c0.8,3.5-0.8,7.2-4.1,8.8c-1.4,0.8-2.9,1.5-4.4,2.2l-1.4,0.6c-0.1,1.8-0.3,3.6-0.6,5.3&#10;&#9;&#9;&#9;&#9;c2,1.4,3.7,2.8,5.2,4.1c2.7,2.4,3.4,6.3,1.9,9.5l0,0l-1.1,2.2c-1.1,2.2-2.2,4.2-3.2,6.3c0,0,0,0.1-0.1,0.1c-2,3.5-6.3,4.9-10,3.5&#10;&#9;&#9;&#9;&#9;c-0.9-0.3-1.9-0.7-2.9-1l-2.6-0.9c-1.4,1.2-2.8,2.3-4.1,3.4c0.1,0.8,0.2,1.7,0.3,2.6c0.1,1,0.2,2,0.3,3c0.7,4.3-2.1,8.5-6.4,9.5&#10;&#9;&#9;&#9;&#9;c-2.8,0.9-5.8,1.7-8.6,2.5C127.6,236.4,126.9,236.5,126.3,236.6z M119.9,224.4c0.9,1.8,1.8,3.7,2.7,5.5v0.1&#10;&#9;&#9;&#9;&#9;c0.5,0.9,1.2,1.7,2.1,2.2c0.8,0.4,1.6,0.5,2.5,0.2c2.9-0.8,5.8-1.6,8.6-2.5l0.2-0.1c2.3-0.5,3.7-2.7,3.3-5c0-0.1,0-0.1,0-0.2&#10;&#9;&#9;&#9;&#9;c-0.1-1-0.2-2-0.3-3s-0.2-2-0.4-3c-0.2-1.2,0.3-2.4,1.4-3.1c1.5-1.1,3-2.3,4.4-3.6c0.9-0.9,2.3-1.1,3.4-0.6l2.9,1l2.9,1&#10;&#9;&#9;&#9;&#9;c1.9,0.8,4,0.1,5.1-1.6c1-2.2,2.2-4.3,3.2-6.4l1.1-2.2c0.7-1.6,0.3-3.5-1-4.7c-1.5-1.3-3.1-2.6-5.1-4c-1.2-0.8-1.8-2.3-1.4-3.7&#10;&#9;&#9;&#9;&#9;c0.3-1.8,0.5-3.5,0.6-5.3c0-1.3,0.8-2.4,2-2.9l1.7-0.8c1.5-0.7,2.9-1.3,4.3-2.1c1.6-0.8,2.5-2.7,2-4.4c-0.7-2.9-1.6-5.8-2.4-8.6&#10;&#9;&#9;&#9;&#9;c0-0.1,0-0.1-0.1-0.2c-0.6-2.2-2.7-3.6-4.9-3.2h-0.1c-1,0.1-2,0.2-3,0.4s-2,0.2-3,0.3c-1.2,0.2-2.5-0.3-3.1-1.3l-1.2-1.5&#10;&#9;&#9;&#9;&#9;c-0.8-1-1.6-2.1-2.4-3c-1-0.9-1.3-2.3-0.7-3.5c0.7-1.9,1.4-3.8,2.1-5.8c0.7-1.9-0.1-4.1-1.8-5.1c-2.5-1.5-5.2-3-8.2-4.4&#10;&#9;&#9;&#9;&#9;c-1.6-0.9-3.7-0.5-4.9,0.9c-1.2,1.4-2.3,2.8-3.4,4.2l-0.9,1.2c-0.7,1-2,1.4-3.2,1.2l-5.8-0.6c-1.2-0.1-2.2-0.7-2.8-1.8l-0.6-1.3&#10;&#9;&#9;&#9;&#9;c-0.8-1.6-1.5-3.2-2.3-4.7c-0.8-1.6-2.6-2.5-4.4-2.1c-3,0.8-6,1.6-9.2,2.6c-2,0.6-3.1,2.6-2.8,4.6c0,0.1,0,0.1,0,0.2&#10;&#9;&#9;&#9;&#9;c0.2,2.1,0.5,4.2,0.8,6.3c0,0.1,0,0.2,0,0.3c0,1-0.4,1.9-1.2,2.5c-0.8,0.7-1.6,1.4-2.4,2s-1.6,1.3-2.4,2l-0.2,0.1&#10;&#9;&#9;&#9;&#9;c-0.8,0.6-1.8,0.7-2.7,0.4c-1.6-0.5-3.1-1-4.7-1.6l-1.2-0.4c-1.9-0.8-4.1-0.1-5.2,1.6c-1.6,2.8-3.2,5.7-4.6,8.5&#10;&#9;&#9;&#9;&#9;c-0.8,1.6-0.4,3.5,1,4.6c1.3,1.1,2.6,2.1,4,3.2l1.5,1.2c0.9,0.7,1.4,1.8,1.2,3l-0.6,5.8c0,1.3-0.8,2.4-2,2.8&#10;&#9;&#9;&#9;&#9;c-1.8,0.9-3.7,1.7-5.5,2.7l-0.1,0.1c-2,0.8-2.9,3.1-2.2,5.1c0,0,0,0.1,0,0.1l2.4,8.1c0.5,2.2,2.6,3.6,4.9,3.3h0.1&#10;&#9;&#9;&#9;&#9;c2-0.2,4.1-0.5,6.1-0.8c1.1-0.2,2.3,0.2,3,1.2c1.2,1.4,2.3,2.9,3.5,4.2c0.9,1,1.2,2.3,0.7,3.6c-0.4,1-0.7,1.9-1,2.9s-0.7,2-1,3&#10;&#9;&#9;&#9;&#9;c-0.7,1.8-0.1,3.9,1.6,5c3.1,1.8,5.9,3.3,8.6,4.7c1.6,0.8,3.5,0.4,4.7-1c1.1-1.2,2.2-2.6,3.2-4c0.3-0.4,0.6-0.8,0.9-1.2&#10;&#9;&#9;&#9;&#9;c0.7-1.1,2.1-1.7,3.4-1.4c1.8,0.3,3.7,0.5,5.6,0.6C118.4,222.3,119.5,223.2,119.9,224.4z M110.8,225.8L110.8,225.8z M116.1,225.6&#10;&#9;&#9;&#9;&#9;L116.1,225.6z M116.1,225.6L116.1,225.6z M83.6,208.3L83.6,208.3z M164.9,204.2L164.9,204.2z M77,177.8L77,177.8z M89.8,153.7&#10;&#9;&#9;&#9;&#9;L89.8,153.7z M124.7,143.2L124.7,143.2z M118,208.2c-4,0-7.9-1-11.4-2.9l0,0c-11.6-6.3-15.9-20.8-9.7-32.4&#10;&#9;&#9;&#9;&#9;c6.3-11.6,20.8-15.9,32.4-9.7c11.6,6.3,15.9,20.8,9.7,32.4C134.8,203.4,126.8,208.2,118,208.2L118,208.2z M108.5,201.8&#10;&#9;&#9;&#9;&#9;c9.6,5.3,21.7,1.7,27-7.9c5.3-9.6,1.7-21.7-7.9-27s-21.7-1.7-27,7.9C95.3,184.5,98.9,196.5,108.5,201.8z"/>
		</g>
	</g>
</g>
</svg>