<svg version="1.1" id="Layer_1" xmlns="http://www.w3.org/2000/svg" xmlns:xlink="http://www.w3.org/1999/xlink" x="0px" y="0px" viewBox="0 0 500 500" style="width: 144px;" xml:space="preserve" data-imageid="chatting-5" imageName="Chatting" class="illustrations_image">
<style type="text/css">
	.st0_chatting-5{fill:#68E1FD;}
	.st1_chatting-5{fill:#093F68;}
	.st2_chatting-5{fill:#FFFFFF;}
	.st3_chatting-5{fill:#DFEAEF;}
	.st4_chatting-5{fill:#FFBC0E;}
	.st5_chatting-5{fill:#F56132;}
</style>
<g id="device_chatting-5">
	<path class="st0_chatting-5 targetColor" d="M184.2,110.2H307c13.2,0,23.9,10.7,23.9,23.9v230.4c0,13.2-10.7,23.9-23.9,23.9H184.2&#10;&#9;&#9;c-13.2,0-23.9-10.7-23.9-23.9V134C160.4,120.8,171.1,110.2,184.2,110.2z" style="fill: rgb(104, 225, 253);"/>
	<path class="st1_chatting-5" d="M312.4,390.1H178.9c-11.3,0-20.4-9.1-20.4-20.4V128.7c0-11.3,9.1-20.4,20.4-20.4h133.5&#10;&#9;&#9;c11.3,0,20.4,9.1,20.4,20.4v241.1C332.7,381,323.6,390.1,312.4,390.1z M178.9,112c-9.2,0-16.6,7.5-16.6,16.6v241.1&#10;&#9;&#9;c0,9.2,7.5,16.6,16.6,16.6h133.5c9.2,0,16.6-7.5,16.6-16.6V128.7c0-9.2-7.5-16.7-16.6-16.7H178.9z"/>
	<rect x="160.4" y="133.3" class="st2_chatting-5" width="170.5" height="212.9"/>
	<path class="st1_chatting-5" d="M330.9,348.1H160.4c-1,0-1.9-0.8-1.9-1.9V133.3c0-1,0.8-1.9,1.9-1.9h170.5c1,0,1.9,0.8,1.9,1.9v212.9&#10;&#9;&#9;C332.7,347.3,331.9,348.1,330.9,348.1z M162.2,344.4H329V135.2H162.2L162.2,344.4z"/>
	<path class="st3_chatting-5" d="M243.7,279.8h70.6c1.9,0,3.5,1.5,3.5,3.5v16.4c0,1.9-1.5,3.5-3.5,3.5h-70.6c-1.9,0-3.5-1.5-3.5-3.5v-16.4&#10;&#9;&#9;C240.3,281.4,241.8,279.8,243.7,279.8z"/>
	<path class="st3_chatting-5" d="M311.3,305h-64.6c-4.6,0-8.3-3.7-8.3-8.3v-10.4c0-4.6,3.7-8.3,8.3-8.3h64.6c4.6,0,8.3,3.7,8.3,8.3v10.3&#10;&#9;&#9;C319.7,301.3,316,305,311.3,305L311.3,305z M246.7,281.7c-2.5,0-4.6,2.1-4.6,4.6v10.3c0,2.5,2.1,4.6,4.6,4.6h64.6&#10;&#9;&#9;c2.5,0,4.6-2.1,4.6-4.6l0,0v-10.4c0-2.5-2.1-4.6-4.6-4.6l0,0L246.7,281.7z"/>
	<path class="st3_chatting-5" d="M244.2,147.7h69.7c2.2,0,3.9,1.8,3.9,3.9v22c0,2.2-1.8,3.9-3.9,3.9h-69.7c-2.2,0-3.9-1.8-3.9-3.9v-22&#10;&#9;&#9;C240.3,149.5,242,147.7,244.2,147.7z"/>
	<path class="st3_chatting-5" d="M310.5,179.4h-62.9c-5.1,0-9.2-4.1-9.2-9.2V155c0-5.1,4.1-9.2,9.2-9.2h62.9c5.1,0,9.2,4.1,9.2,9.2v15.2&#10;&#9;&#9;C319.7,175.3,315.6,179.4,310.5,179.4C310.5,179.4,310.5,179.4,310.5,179.4z M247.6,149.6c-3,0-5.4,2.4-5.4,5.4v15.2&#10;&#9;&#9;c0,3,2.4,5.4,5.4,5.4h62.9c3,0,5.5-2.4,5.5-5.4V155c0-3-2.4-5.4-5.5-5.4L247.6,149.6z"/>
	<path class="st3_chatting-5" d="M172,246.1h70.8c1.9,0,3.4,1.5,3.4,3.4v15.2c0,1.9-1.5,3.4-3.4,3.4H172c-1.9,0-3.4-1.5-3.4-3.4v-15.2&#10;&#9;&#9;C168.6,247.6,170.1,246.1,172,246.1z"/>
	<path class="st3_chatting-5" d="M239.9,269.9h-65c-4.5,0-8.1-3.7-8.1-8.1v-9.4c0-4.5,3.6-8.1,8.1-8.2h65c4.5,0,8.1,3.7,8.1,8.2v9.4&#10;&#9;&#9;C248,266.3,244.4,269.9,239.9,269.9z M174.9,247.9c-2.4,0-4.4,2-4.4,4.4v9.4c0,2.4,2,4.4,4.4,4.4h65c2.4,0,4.4-2,4.4-4.4v-9.4&#10;&#9;&#9;c0-2.4-2-4.4-4.4-4.4L174.9,247.9z"/>
	<path class="st3_chatting-5" d="M173.7,182.4h67.4c2.8,0,5.1,2.3,5.1,5.1v40.2c0,2.8-2.3,5.1-5.1,5.1h-67.4c-2.8,0-5.1-2.3-5.1-5.1v-40.2&#10;&#9;&#9;C168.6,184.6,170.9,182.4,173.7,182.4z"/>
	<path class="st3_chatting-5" d="M236.6,234.6h-58.5c-6.3,0-11.4-5.1-11.4-11.4v-31.4c0-6.3,5.1-11.4,11.4-11.4h58.5c6.3,0,11.4,5.1,11.4,11.4&#10;&#9;&#9;v31.4C248,229.5,242.9,234.6,236.6,234.6z M178.1,184.2c-4.2,0-7.6,3.4-7.6,7.6v31.4c0,4.2,3.4,7.6,7.6,7.6h58.5&#10;&#9;&#9;c4.2,0,7.6-3.4,7.6-7.6v-31.4c0-4.2-3.4-7.6-7.6-7.6H178.1z"/>
	<path class="st1_chatting-5" d="M263.5,124h-27.4c-1,0-1.9-0.8-1.9-1.9c0-1,0.8-1.9,1.9-1.9c0,0,0,0,0,0h27.4c1,0,1.9,0.8,1.9,1.9&#10;&#9;&#9;C265.4,123.2,264.6,124,263.5,124C263.5,124,263.5,124,263.5,124z"/>
	<path class="st1_chatting-5" d="M227.7,124c-1,0-1.8-0.8-1.9-1.9c0-0.1,0-0.2,0-0.4c0-0.1,0.1-0.2,0.1-0.4l0.2-0.3l0.2-0.3&#10;&#9;&#9;c0.7-0.7,1.9-0.7,2.6,0l0.2,0.3l0.2,0.3c0,0.1,0.1,0.2,0.1,0.4c0,0.1,0,0.2,0,0.4c0,0.5-0.2,1-0.6,1.3c-0.2,0.2-0.4,0.3-0.6,0.4&#10;&#9;&#9;C228.1,123.9,227.9,124,227.7,124z"/>
	<circle class="st1_chatting-5" cx="245.6" cy="366.5" r="8.8"/>
	<path class="st3_chatting-5" d="M310.4,334.3H180.8c-5.1,0-9.2-4.1-9.2-9.2s4.1-9.2,9.2-9.2h129.6c5.1,0,9.2,4.1,9.2,9.2&#10;&#9;&#9;S315.5,334.3,310.4,334.3z M180.8,319.6c-3,0.2-5.4,2.8-5.2,5.8c0.2,2.8,2.4,5,5.2,5.2h129.6c3,0.2,5.6-2.1,5.8-5.2&#10;&#9;&#9;s-2.1-5.6-5.2-5.8c-0.2,0-0.4,0-0.7,0H180.8z"/>
</g>
<g id="text-1_chatting-5">
	<path class="st4_chatting-5" d="M235.9,147.7H129.2c-5.4,0-9.8,4.4-9.8,9.8l0,0v58.8c0,5.4,4.4,9.7,9.7,9.7c0,0,0,0,0,0h64l13.6,23.7v-23.7&#10;&#9;&#9;h29.1c5.4,0,9.7-4.4,9.8-9.7v-58.8C245.6,152.1,241.3,147.7,235.9,147.7C235.9,147.7,235.9,147.7,235.9,147.7z"/>
	<path class="st1_chatting-5" d="M206.7,251.6c-0.7,0-1.3-0.4-1.6-0.9l-13.1-22.7h-62.9c-6.4,0-11.6-5.2-11.6-11.6v-58.8&#10;&#9;&#9;c0-6.4,5.2-11.6,11.6-11.6h106.7c6.4,0,11.6,5.2,11.6,11.6v58.8c0,6.4-5.2,11.6-11.6,11.6h-27.3v21.8c0,0.8-0.6,1.6-1.4,1.8&#10;&#9;&#9;C207.1,251.6,206.9,251.6,206.7,251.6z M129.2,149.6c-4.3,0-7.9,3.5-7.9,7.9v58.9c0,4.3,3.5,7.9,7.9,7.9h64c0.7,0,1.3,0.4,1.6,0.9&#10;&#9;&#9;l10.1,17.6v-16.6c0-1,0.8-1.9,1.9-1.9h29.1c4.3,0,7.9-3.5,7.9-7.9v-58.9c0-4.3-3.5-7.9-7.9-7.9L129.2,149.6z"/>
	<path class="st1_chatting-5" d="M221.5,170.6h-78c-1,0-1.9-0.8-1.9-1.9c0-1,0.8-1.9,1.9-1.9h78c1,0,1.9,0.8,1.9,1.9&#10;&#9;&#9;C223.4,169.8,222.6,170.6,221.5,170.6z"/>
	<path class="st1_chatting-5" d="M221.5,185.7h-78c-1,0-1.9-0.8-1.9-1.9c0-1,0.8-1.9,1.9-1.9h78c1,0,1.9,0.8,1.9,1.9&#10;&#9;&#9;C223.4,184.9,222.6,185.7,221.5,185.7z"/>
	<path class="st1_chatting-5" d="M198,200.9h-54.5c-1-0.1-1.8-1-1.7-2c0.1-0.9,0.8-1.7,1.7-1.7H198c1,0.1,1.8,1,1.7,2&#10;&#9;&#9;C199.7,200.1,198.9,200.8,198,200.9z"/>
</g>
<g id="text-2_chatting-5">
	<path class="st5_chatting-5" d="M275.5,200.1h96.3c4.9,0,8.8,3.9,8.8,8.8V262c0,4.9-3.9,8.8-8.8,8.8H314l-12.3,21.4v-21.4h-26.3&#10;&#9;&#9;c-4.9,0-8.8-3.9-8.8-8.8v-53.1C266.7,204,270.6,200.1,275.5,200.1z"/>
	<path class="st1_chatting-5" d="M301.8,294c-0.2,0-0.3,0-0.5-0.1c-0.8-0.2-1.4-1-1.4-1.8v-19.5h-24.4c-5.9,0-10.6-4.8-10.7-10.6v-53.1&#10;&#9;&#9;c0-5.9,4.8-10.7,10.7-10.7h96.3c5.9,0,10.7,4.8,10.7,10.7V262c0,5.9-4.8,10.7-10.7,10.7h-56.6l-11.7,20.4&#10;&#9;&#9;C303.1,293.7,302.5,294,301.8,294z M275.5,202c-3.8,0-6.9,3.1-6.9,6.9V262c0,3.8,3.1,6.9,6.9,6.9h26.3c1,0,1.9,0.8,1.9,1.9v14.3&#10;&#9;&#9;l8.8-15.3c0.3-0.6,1-0.9,1.6-0.9h57.7c3.8,0,6.9-3.1,6.9-6.9v-53.1c0-3.8-3.1-6.9-6.9-6.9L275.5,202z"/>
	<path class="st1_chatting-5" d="M362.6,219.7h-78c-1,0-1.9-0.8-1.9-1.9c0-1,0.8-1.9,1.9-1.9h78c1,0,1.9,0.8,1.9,1.9&#10;&#9;&#9;C364.5,218.8,363.7,219.7,362.6,219.7L362.6,219.7z"/>
	<path class="st1_chatting-5" d="M362.6,234.8h-78c-1,0-1.9-0.8-1.9-1.9c0-1,0.8-1.9,1.9-1.9h78c1,0,1.9,0.8,1.9,1.9&#10;&#9;&#9;C364.5,234,363.7,234.8,362.6,234.8L362.6,234.8z"/>
	<path class="st1_chatting-5" d="M339.1,249.9h-54.4c-1,0-1.9-0.8-1.9-1.9c0-1,0.8-1.9,1.9-1.9h54.4c1,0,1.9,0.8,1.9,1.9&#10;&#9;&#9;C340.9,249.1,340.1,249.9,339.1,249.9z"/>
</g>
</svg>